  0
SECTION
  2
HEADER
  9
$ACADVER
  1
AC1014
  9
$ACADMAINTVER
 70
     9
  9
$DWGCODEPAGE
  3
ANSI_1252
  9
$INSBASE
 10
0.0
 20
0.0
 30
0.0
  9
$EXTMIN
 10
1.000000000000000E+20
 20
1.000000000000000E+20
 30
1.000000000000000E+20
  9
$EXTMAX
 10
-1.000000000000000E+20
 20
-1.000000000000000E+20
 30
-1.000000000000000E+20
  9
$LIMMIN
 10
0.0
 20
0.0
  9
$LIMMAX
 10
12.0
 20
9.0
  9
$ORTHOMODE
 70
     0
  9
$REGENMODE
 70
     1
  9
$FILLMODE
 70
     1
  9
$QTEXTMODE
 70
     0
  9
$MIRRTEXT
 70
     1
  9
$DRAGMODE
 70
     2
  9
$LTSCALE
 40
1.0
  9
$OSMODE
 70
    37
  9
$ATTMODE
 70
     1
  9
$TEXTSIZE
 40
0.2
  9
$TRACEWID
 40
0.05
  9
$TEXTSTYLE
  7
STANDARD
  9
$CLAYER
  8
0
  9
$CELTYPE
  6
BYLAYER
  9
$CECOLOR
 62
   256
  9
$CELTSCALE
 40
1.0
  9
$DELOBJ
 70
     1
  9
$DISPSILH
 70
     0
  9
$DIMSCALE
 40
1.0
  9
$DIMASZ
 40
0.18
  9
$DIMEXO
 40
0.0625
  9
$DIMDLI
 40
0.38
  9
$DIMRND
 40
0.0
  9
$DIMDLE
 40
0.0
  9
$DIMEXE
 40
0.18
  9
$DIMTP
 40
0.0
  9
$DIMTM
 40
0.0
  9
$DIMTXT
 40
0.18
  9
$DIMCEN
 40
0.09
  9
$DIMTSZ
 40
0.0
  9
$DIMTOL
 70
     0
  9
$DIMLIM
 70
     0
  9
$DIMTIH
 70
     1
  9
$DIMTOH
 70
     1
  9
$DIMSE1
 70
     0
  9
$DIMSE2
 70
     0
  9
$DIMTAD
 70
     0
  9
$DIMZIN
 70
     0
  9
$DIMBLK
  1

  9
$DIMASO
 70
     1
  9
$DIMSHO
 70
     1
  9
$DIMPOST
  1

  9
$DIMAPOST
  1

  9
$DIMALT
 70
     0
  9
$DIMALTD
 70
     2
  9
$DIMALTF
 40
25.4
  9
$DIMLFAC
 40
1.0
  9
$DIMTOFL
 70
     0
  9
$DIMTVP
 40
0.0
  9
$DIMTIX
 70
     0
  9
$DIMSOXD
 70
     0
  9
$DIMSAH
 70
     0
  9
$DIMBLK1
  1

  9
$DIMBLK2
  1

  9
$DIMSTYLE
  2
STANDARD
  9
$DIMCLRD
 70
     0
  9
$DIMCLRE
 70
     0
  9
$DIMCLRT
 70
     0
  9
$DIMTFAC
 40
1.0
  9
$DIMGAP
 40
0.09
  9
$DIMJUST
 70
     0
  9
$DIMSD1
 70
     0
  9
$DIMSD2
 70
     0
  9
$DIMTOLJ
 70
     1
  9
$DIMTZIN
 70
     0
  9
$DIMALTZ
 70
     0
  9
$DIMALTTZ
 70
     0
  9
$DIMFIT
 70
     3
  9
$DIMUPT
 70
     0
  9
$DIMUNIT
 70
     2
  9
$DIMDEC
 70
     4
  9
$DIMTDEC
 70
     4
  9
$DIMALTU
 70
     2
  9
$DIMALTTD
 70
     2
  9
$DIMTXSTY
  7
STANDARD
  9
$DIMAUNIT
 70
     0
  9
$LUNITS
 70
     2
  9
$LUPREC
 70
     4
  9
$SKETCHINC
 40
0.1
  9
$FILLETRAD
 40
0.5
  9
$AUNITS
 70
     0
  9
$AUPREC
 70
     0
  9
$MENU
  1
.
  9
$ELEVATION
 40
0.0
  9
$PELEVATION
 40
0.0
  9
$THICKNESS
 40
0.0
  9
$LIMCHECK
 70
     0
  9
$CHAMFERA
 40
0.0
  9
$CHAMFERB
 40
0.0
  9
$CHAMFERC
 40
0.0
  9
$CHAMFERD
 40
0.0
  9
$SKPOLY
 70
     0
  9
$TDCREATE
 40
2457727.836000162
  9
$TDUPDATE
 40
2457727.83600022
  9
$TDINDWG
 40
0.0000000116
  9
$TDUSRTIMER
 40
0.0000000116
  9
$USRTIMER
 70
     1
  9
$ANGBASE
 50
0.0
  9
$ANGDIR
 70
     0
  9
$PDMODE
 70
     0
  9
$PDSIZE
 40
0.0
  9
$PLINEWID
 40
0.0
  9
$COORDS
 70
     1
  9
$SPLFRAME
 70
     0
  9
$SPLINETYPE
 70
     6
  9
$SPLINESEGS
 70
     8
  9
$ATTDIA
 70
     0
  9
$ATTREQ
 70
     1
  9
$HANDLING
 70
     1
  9
$HANDSEED
  5
21A
  9
$SURFTAB1
 70
     6
  9
$SURFTAB2
 70
     6
  9
$SURFTYPE
 70
     6
  9
$SURFU
 70
     6
  9
$SURFV
 70
     6
  9
$UCSNAME
  2

  9
$UCSORG
 10
0.0
 20
0.0
 30
0.0
  9
$UCSXDIR
 10
1.0
 20
0.0
 30
0.0
  9
$UCSYDIR
 10
0.0
 20
1.0
 30
0.0
  9
$PUCSNAME
  2

  9
$PUCSORG
 10
0.0
 20
0.0
 30
0.0
  9
$PUCSXDIR
 10
1.0
 20
0.0
 30
0.0
  9
$PUCSYDIR
 10
0.0
 20
1.0
 30
0.0
  9
$USERI1
 70
     0
  9
$USERI2
 70
     0
  9
$USERI3
 70
     0
  9
$USERI4
 70
     0
  9
$USERI5
 70
     0
  9
$USERR1
 40
0.0
  9
$USERR2
 40
0.0
  9
$USERR3
 40
0.0
  9
$USERR4
 40
0.0
  9
$USERR5
 40
0.0
  9
$WORLDVIEW
 70
     1
  9
$SHADEDGE
 70
     3
  9
$SHADEDIF
 70
    70
  9
$TILEMODE
 70
     1
  9
$MAXACTVP
 70
    64
  9
$PINSBASE
 10
0.0
 20
0.0
 30
0.0
  9
$PLIMCHECK
 70
     0
  9
$PEXTMIN
 10
1.000000000000000E+20
 20
1.000000000000000E+20
 30
1.000000000000000E+20
  9
$PEXTMAX
 10
-1.000000000000000E+20
 20
-1.000000000000000E+20
 30
-1.000000000000000E+20
  9
$PLIMMIN
 10
0.0
 20
0.0
  9
$PLIMMAX
 10
12.0
 20
9.0
  9
$UNITMODE
 70
     0
  9
$VISRETAIN
 70
     1
  9
$PLINEGEN
 70
     0
  9
$PSLTSCALE
 70
     1
  9
$TREEDEPTH
 70
  3020
  9
$PICKSTYLE
 70
     1
  9
$CMLSTYLE
  2
STANDARD
  9
$CMLJUST
 70
     0
  9
$CMLSCALE
 40
1.0
  9
$PROXYGRAPHICS
 70
     1
  9
$MEASUREMENT
 70
     1
  0
ENDSEC
  0
SECTION
  2
CLASSES
  0
CLASS
  1
ACDBDICTIONARYWDFLT
  2
AcDbDictionaryWithDefault
  3
ObjectDBX Classes
 90
        0
280
     0
281
     0
  0
CLASS
  1
VISUALSTYLE
  2
AcDbVisualStyle
  3
ObjectDBX Classes
 90
     4095
280
     0
281
     0
  0
CLASS
  1
MATERIAL
  2
AcDbMaterial
  3
ObjectDBX Classes
 90
     1153
280
     0
281
     0
  0
CLASS
  1
SCALE
  2
AcDbScale
  3
ObjectDBX Classes
 90
     1153
280
     0
281
     0
  0
CLASS
  1
TABLESTYLE
  2
AcDbTableStyle
  3
ObjectDBX Classes
 90
     4095
280
     0
281
     0
  0
CLASS
  1
MLEADERSTYLE
  2
AcDbMLeaderStyle
  3
ACDB_MLEADERSTYLE_CLASS
 90
     4095
280
     0
281
     0
  0
CLASS
  1
SUN
  2
AcDbSun
  3
SCENEOE
 90
     1153
280
     0
281
     0
  0
CLASS
  1
DICTIONARYVAR
  2
AcDbDictionaryVar
  3
ObjectDBX Classes
 90
        0
280
     0
281
     0
  0
CLASS
  1
XRECORD
  2
AcDbXrecord
  3
ObjectDBX Classes
 90
        0
280
     0
281
     0
  0
CLASS
  1
LWPOLYLINE
  2
AcDbPolyline
  3
ObjectDBX Classes
 90
        0
280
     0
281
     1
  0
CLASS
  1
HATCH
  2
AcDbHatch
  3
ObjectDBX Classes
 90
        0
280
     0
281
     1
  0
CLASS
  1
ACDBPLACEHOLDER
  2
AcDbPlaceHolder
  3
ObjectDBX Classes
 90
        0
280
     0
281
     0
  0
CLASS
  1
LAYOUT
  2
AcDbLayout
  3
ObjectDBX Classes
 90
        0
280
     0
281
     0
  0
ENDSEC
  0
SECTION
  2
TABLES
  0
TABLE
  2
VPORT
  5
8
102
{ACAD_XDICTIONARY
360
20F
102
}
330
0
100
AcDbSymbolTable
 70
     1
  0
VPORT
  5
29
330
8
100
AcDbSymbolTableRecord
100
AcDbViewportTableRecord
  2
*ACTIVE
 70
     0
 10
0.0
 20
0.0
 11
1.0
 21
1.0
 12
0.0
 22
0.0
 13
0.0
 23
0.0
 14
0.5
 24
0.5
 15
0.5
 25
0.5
 16
0.0
 26
0.0
 36
1.0
 17
0.0
 27
0.0
 37
-1000.0
 40
706.6522373868086
 41
1.029572836801752
 42
50.0
 43
1149.377916280354
 44
1440.145800287525
 50
0.0
 51
0.0
 71
     0
 72
   100
 73
     1
 74
     3
 75
     0
 76
     0
 77
     0
 78
     0
  0
ENDTAB
  0
TABLE
  2
LTYPE
  5
5
330
0
100
AcDbSymbolTable
 70
     1
  0
LTYPE
  5
14
330
5
100
AcDbSymbolTableRecord
100
AcDbLinetypeTableRecord
  2
BYBLOCK
 70
     0
  3

 72
    65
 73
     0
 40
0.0
  0
LTYPE
  5
15
330
5
100
AcDbSymbolTableRecord
100
AcDbLinetypeTableRecord
  2
BYLAYER
 70
     0
  3

 72
    65
 73
     0
 40
0.0
  0
LTYPE
  5
16
330
5
100
AcDbSymbolTableRecord
100
AcDbLinetypeTableRecord
  2
CONTINUOUS
 70
     0
  3
Solid line
 72
    65
 73
     0
 40
0.0
  0
ENDTAB
  0
TABLE
  2
LAYER
  5
2
330
0
100
AcDbSymbolTable
 70
     3
  0
LAYER
  5
10
330
2
100
AcDbSymbolTableRecord
100
AcDbLayerTableRecord
  2
0
 70
     0
 62
     7
  6
CONTINUOUS
  0
LAYER
  5
6E
330
2
100
AcDbSymbolTableRecord
100
AcDbLayerTableRecord
  2
PROFILEEDGES
 70
     0
 62
     7
  6
CONTINUOUS
  0
LAYER
  5
6F
330
2
100
AcDbSymbolTableRecord
100
AcDbLayerTableRecord
  2
SECTIONCUTEDGES
 70
     0
 62
     7
  6
CONTINUOUS
  0
ENDTAB
  0
TABLE
  2
STYLE
  5
3
330
0
100
AcDbSymbolTable
 70
     1
  0
STYLE
  5
11
330
3
100
AcDbSymbolTableRecord
100
AcDbTextStyleTableRecord
  2
STANDARD
 70
     0
 40
0.0
 41
1.0
 50
0.0
 71
     0
 42
0.2
  3
txt
  4

  0
ENDTAB
  0
TABLE
  2
VIEW
  5
6
330
0
100
AcDbSymbolTable
 70
     0
  0
ENDTAB
  0
TABLE
  2
UCS
  5
7
330
0
100
AcDbSymbolTable
 70
     0
  0
ENDTAB
  0
TABLE
  2
APPID
  5
9
330
0
100
AcDbSymbolTable
 70
     2
  0
APPID
  5
12
330
9
100
AcDbSymbolTableRecord
100
AcDbRegAppTableRecord
  2
ACAD
 70
     0
  0
APPID
  5
219
330
9
100
AcDbSymbolTableRecord
100
AcDbRegAppTableRecord
  2
ACAD_MLEADERVER
 70
     0
  0
ENDTAB
  0
TABLE
  2
DIMSTYLE
  5
A
330
0
100
AcDbSymbolTable
 70
     1
  0
DIMSTYLE
105
27
330
A
100
AcDbSymbolTableRecord
100
AcDbDimStyleTableRecord
  2
STANDARD
 70
     0
  3

  4

  5

  6

  7

 40
1.0
 41
0.18
 42
0.0625
 43
0.38
 44
0.18
 45
0.0
 46
0.0
 47
0.0
 48
0.0
140
0.18
141
0.09
142
0.0
143
25.4
144
1.0
145
0.0
146
1.0
147
0.09
 71
     0
 72
     0
 73
     1
 74
     1
 75
     0
 76
     0
 77
     0
 78
     0
170
     0
171
     2
172
     0
173
     0
174
     0
175
     0
176
     0
177
     0
178
     0
270
     2
271
     4
272
     4
273
     2
274
     2
340
11
275
     0
280
     0
281
     0
282
     0
283
     1
284
     0
285
     0
286
     0
287
     3
288
     0
  0
ENDTAB
  0
TABLE
  2
BLOCK_RECORD
  5
1
330
0
100
AcDbSymbolTable
 70
     1
  0
BLOCK_RECORD
  5
1F
330
1
100
AcDbSymbolTableRecord
100
AcDbBlockTableRecord
  2
*MODEL_SPACE
  0
BLOCK_RECORD
  5
1B
330
1
100
AcDbSymbolTableRecord
100
AcDbBlockTableRecord
  2
*PAPER_SPACE
  0
ENDTAB
  0
ENDSEC
  0
SECTION
  2
BLOCKS
  0
BLOCK
  5
20
330
1F
100
AcDbEntity
  8
0
100
AcDbBlockBegin
  2
*MODEL_SPACE
 70
     0
 10
0.0
 20
0.0
 30
0.0
  3
*MODEL_SPACE
  1

  0
ENDBLK
  5
21
330
1F
100
AcDbEntity
  8
0
100
AcDbBlockEnd
  0
BLOCK
  5
1C
330
1B
100
AcDbEntity
 67
     1
  8
0
100
AcDbBlockBegin
  2
*PAPER_SPACE
 70
     0
 10
0.0
 20
0.0
 30
0.0
  3
*PAPER_SPACE
  1

  0
ENDBLK
  5
1D
330
1B
100
AcDbEntity
 67
     1
  8
0
100
AcDbBlockEnd
  0
ENDSEC
  0
SECTION
  2
ENTITIES
  0
LINE
  5
70
330
1F
100
AcDbEntity
  8
0
100
AcDbLine
 10
91.0658997406734
 20
60.73376560018186
 30
0.0
 11
91.85309025936331
 21
61.05983058919472
 31
0.0
  0
LINE
  5
71
330
1F
100
AcDbEntity
  8
0
100
AcDbLine
 10
-64.43958324202998
 20
44.90714528477002
 30
0.0
 11
-64.43958324202995
 21
70.90714528476977
 31
0.0
  0
LINE
  5
72
330
1F
100
AcDbEntity
  8
0
100
AcDbLine
 10
-64.43958324202995
 20
70.90714528476977
 30
0.0
 11
103.7533304872615
 21
70.90714528476977
 31
0.0
  0
LINE
  5
73
330
1F
100
AcDbEntity
  8
0
100
AcDbLine
 10
103.7533304872615
 20
44.90714528477002
 30
0.0
 11
-64.43958324202998
 21
44.90714528477002
 31
0.0
  0
LINE
  5
74
330
1F
100
AcDbEntity
  8
0
100
AcDbLine
 10
103.7533304872615
 20
70.90714528476977
 30
0.0
 11
103.7533304872615
 21
44.90714528477002
 31
0.0
  0
LINE
  5
75
330
1F
100
AcDbEntity
  8
0
100
AcDbLine
 10
92.69784974067343
 20
61.17104528476984
 30
0.0
 11
93.54260922198354
 21
61.05983058919472
 31
0.0
  0
LINE
  5
76
330
1F
100
AcDbEntity
  8
0
100
AcDbLine
 10
91.85309025936331
 20
61.05983058919472
 30
0.0
 11
92.69784974067343
 21
61.17104528476984
 31
0.0
  0
LINE
  5
77
330
1F
100
AcDbEntity
  8
0
100
AcDbLine
 10
90.38992391755859
 20
60.21507110788461
 30
0.0
 11
91.0658997406734
 21
60.73376560018186
 31
0.0
  0
LINE
  5
78
330
1F
100
AcDbEntity
  8
0
100
AcDbLine
 10
89.87122942526135
 20
59.53909528476981
 30
0.0
 11
90.38992391755859
 21
60.21507110788461
 31
0.0
  0
LINE
  5
79
330
1F
100
AcDbEntity
  8
0
100
AcDbLine
 10
89.54516443624848
 20
58.75190476607998
 30
0.0
 11
89.87122942526135
 21
59.53909528476981
 31
0.0
  0
LINE
  5
7A
330
1F
100
AcDbEntity
  8
0
100
AcDbLine
 10
89.43394974067337
 20
57.90714528476987
 30
0.0
 11
89.54516443624848
 21
58.75190476607998
 31
0.0
  0
LINE
  5
7B
330
1F
100
AcDbEntity
  8
0
100
AcDbLine
 10
89.54516443624848
 20
57.06238580345975
 30
0.0
 11
89.43394974067337
 21
57.90714528476987
 31
0.0
  0
LINE
  5
7C
330
1F
100
AcDbEntity
  8
0
100
AcDbLine
 10
89.87122942526135
 20
56.27519528476984
 30
0.0
 11
89.54516443624848
 21
57.06238580345975
 31
0.0
  0
LINE
  5
7D
330
1F
100
AcDbEntity
  8
0
100
AcDbLine
 10
90.38992391755859
 20
55.59921946165503
 30
0.0
 11
89.87122942526135
 21
56.27519528476984
 31
0.0
  0
LINE
  5
7E
330
1F
100
AcDbEntity
  8
0
100
AcDbLine
 10
91.0658997406734
 20
55.08052496935778
 30
0.0
 11
90.38992391755859
 21
55.59921946165503
 31
0.0
  0
LINE
  5
7F
330
1F
100
AcDbEntity
  8
0
100
AcDbLine
 10
91.85309025936331
 20
54.75445998034492
 30
0.0
 11
91.0658997406734
 21
55.08052496935778
 31
0.0
  0
LINE
  5
80
330
1F
100
AcDbEntity
  8
0
100
AcDbLine
 10
92.69784974067343
 20
54.6432452847699
 30
0.0
 11
91.85309025936331
 21
54.75445998034492
 31
0.0
  0
LINE
  5
81
330
1F
100
AcDbEntity
  8
0
100
AcDbLine
 10
93.54260922198354
 20
54.75445998034492
 30
0.0
 11
92.69784974067343
 21
54.6432452847699
 31
0.0
  0
LINE
  5
82
330
1F
100
AcDbEntity
  8
0
100
AcDbLine
 10
94.32979974067337
 20
55.08052496935778
 30
0.0
 11
93.54260922198354
 21
54.75445998034492
 31
0.0
  0
LINE
  5
83
330
1F
100
AcDbEntity
  8
0
100
AcDbLine
 10
95.00577556378818
 20
55.59921946165503
 30
0.0
 11
94.32979974067337
 21
55.08052496935778
 31
0.0
  0
LINE
  5
84
330
1F
100
AcDbEntity
  8
0
100
AcDbLine
 10
95.52447005608542
 20
56.27519528476984
 30
0.0
 11
95.00577556378818
 21
55.59921946165503
 31
0.0
  0
LINE
  5
85
330
1F
100
AcDbEntity
  8
0
100
AcDbLine
 10
95.85053504509828
 20
57.06238580345975
 30
0.0
 11
95.52447005608542
 21
56.27519528476984
 31
0.0
  0
LINE
  5
86
330
1F
100
AcDbEntity
  8
0
100
AcDbLine
 10
95.9617497406734
 20
57.90714528476987
 30
0.0
 11
95.85053504509828
 21
57.06238580345975
 31
0.0
  0
LINE
  5
87
330
1F
100
AcDbEntity
  8
0
100
AcDbLine
 10
95.85053504509828
 20
58.75190476607998
 30
0.0
 11
95.9617497406734
 21
57.90714528476987
 31
0.0
  0
LINE
  5
88
330
1F
100
AcDbEntity
  8
0
100
AcDbLine
 10
95.52447005608542
 20
59.53909528476981
 30
0.0
 11
95.85053504509828
 21
58.75190476607998
 31
0.0
  0
LINE
  5
89
330
1F
100
AcDbEntity
  8
0
100
AcDbLine
 10
95.00577556378818
 20
60.21507110788461
 30
0.0
 11
95.52447005608542
 21
59.53909528476981
 31
0.0
  0
LINE
  5
8A
330
1F
100
AcDbEntity
  8
0
100
AcDbLine
 10
94.32979974067337
 20
60.73376560018186
 30
0.0
 11
95.00577556378818
 21
60.21507110788461
 31
0.0
  0
LINE
  5
8B
330
1F
100
AcDbEntity
  8
0
100
AcDbLine
 10
93.54260922198354
 20
61.05983058919472
 30
0.0
 11
94.32979974067337
 21
60.73376560018186
 31
0.0
  0
LINE
  5
8C
330
1F
100
AcDbEntity
  8
0
100
AcDbLine
 10
25.24252059253675
 20
-93.76160023654761
 30
0.0
 11
24.62685796896996
 21
-93.50658442802006
 31
0.0
  0
LINE
  5
8D
330
1F
100
AcDbEntity
  8
0
100
AcDbLine
 10
25.77120207287167
 20
-94.16727180445324
 30
0.0
 11
25.24252059253675
 21
-93.76160023654761
 31
0.0
  0
LINE
  5
8E
330
1F
100
AcDbEntity
  8
0
100
AcDbLine
 10
26.17687364077732
 20
-94.69595328478813
 30
0.0
 11
25.77120207287167
 21
-94.16727180445324
 31
0.0
  0
LINE
  5
8F
330
1F
100
AcDbEntity
  8
0
100
AcDbLine
 10
26.43188944930493
 20
-95.3116159083549
 30
0.0
 11
26.17687364077732
 21
-94.69595328478813
 31
0.0
  0
LINE
  5
90
330
1F
100
AcDbEntity
  8
0
100
AcDbLine
 10
26.51887059253689
 20
-95.97230328478808
 30
0.0
 11
26.43188944930493
 21
-95.3116159083549
 31
0.0
  0
LINE
  5
91
330
1F
100
AcDbEntity
  8
0
100
AcDbLine
 10
26.43188944930498
 20
-96.6329906612213
 30
0.0
 11
26.51887059253689
 21
-95.97230328478808
 31
0.0
  0
LINE
  5
92
330
1F
100
AcDbEntity
  8
0
100
AcDbLine
 10
26.17687364077745
 20
-97.24865328478812
 30
0.0
 11
26.43188944930498
 21
-96.6329906612213
 31
0.0
  0
LINE
  5
93
330
1F
100
AcDbEntity
  8
0
100
AcDbLine
 10
25.77120207287185
 20
-97.77733476512302
 30
0.0
 11
26.17687364077745
 21
-97.24865328478812
 31
0.0
  0
LINE
  5
94
330
1F
100
AcDbEntity
  8
0
100
AcDbLine
 10
25.24252059253693
 20
-98.18300633302867
 30
0.0
 11
25.77120207287185
 21
-97.77733476512302
 31
0.0
  0
LINE
  5
95
330
1F
100
AcDbEntity
  8
0
100
AcDbLine
 10
24.62685796897019
 20
-98.43802214155627
 30
0.0
 11
25.24252059253693
 21
-98.18300633302867
 31
0.0
  0
LINE
  5
96
330
1F
100
AcDbEntity
  8
0
100
AcDbLine
 10
23.96617059253698
 20
-98.52500328478823
 30
0.0
 11
24.62685796897019
 21
-98.43802214155627
 31
0.0
  0
LINE
  5
97
330
1F
100
AcDbEntity
  8
0
100
AcDbLine
 10
23.30548321610376
 20
-98.43802214155636
 30
0.0
 11
23.96617059253698
 21
-98.52500328478823
 31
0.0
  0
LINE
  5
98
330
1F
100
AcDbEntity
  8
0
100
AcDbLine
 10
22.68982059253697
 20
-98.18300633302881
 30
0.0
 11
23.30548321610376
 21
-98.43802214155636
 31
0.0
  0
LINE
  5
99
330
1F
100
AcDbEntity
  8
0
100
AcDbLine
 10
22.16113911220205
 20
-97.77733476512319
 30
0.0
 11
22.68982059253697
 21
-98.18300633302881
 31
0.0
  0
LINE
  5
9A
330
1F
100
AcDbEntity
  8
0
100
AcDbLine
 10
21.75546754429641
 20
-97.24865328478829
 30
0.0
 11
22.16113911220205
 21
-97.77733476512319
 31
0.0
  0
LINE
  5
9B
330
1F
100
AcDbEntity
  8
0
100
AcDbLine
 10
21.5004517357688
 20
-96.63299066122153
 30
0.0
 11
21.75546754429641
 21
-97.24865328478829
 31
0.0
  0
LINE
  5
9C
330
1F
100
AcDbEntity
  8
0
100
AcDbLine
 10
21.41347059253688
 20
-95.97230328478831
 30
0.0
 11
21.5004517357688
 21
-96.63299066122153
 31
0.0
  0
LINE
  5
9D
330
1F
100
AcDbEntity
  8
0
100
AcDbLine
 10
21.50045173576875
 20
-95.31161590835512
 30
0.0
 11
21.41347059253688
 21
-95.97230328478831
 31
0.0
  0
LINE
  5
9E
330
1F
100
AcDbEntity
  8
0
100
AcDbLine
 10
21.75546754429627
 20
-94.69595328478832
 30
0.0
 11
21.50045173576875
 21
-95.31161590835512
 31
0.0
  0
LINE
  5
9F
330
1F
100
AcDbEntity
  8
0
100
AcDbLine
 10
22.16113911220187
 20
-94.16727180445342
 30
0.0
 11
21.75546754429627
 21
-94.69595328478832
 31
0.0
  0
LINE
  5
A0
330
1F
100
AcDbEntity
  8
0
100
AcDbLine
 10
22.68982059253675
 20
-93.76160023654775
 30
0.0
 11
22.16113911220187
 21
-94.16727180445342
 31
0.0
  0
LINE
  5
A1
330
1F
100
AcDbEntity
  8
0
100
AcDbLine
 10
23.30548321610354
 20
-93.50658442802015
 30
0.0
 11
22.68982059253675
 21
-93.76160023654775
 31
0.0
  0
LINE
  5
A2
330
1F
100
AcDbEntity
  8
0
100
AcDbLine
 10
23.96617059253675
 20
-93.4196032847882
 30
0.0
 11
23.30548321610354
 21
-93.50658442802015
 31
0.0
  0
LINE
  5
A3
330
1F
100
AcDbEntity
  8
0
100
AcDbLine
 10
24.62685796896996
 20
-93.50658442802006
 30
0.0
 11
23.96617059253675
 21
-93.4196032847882
 31
0.0
  0
LINE
  5
A4
330
1F
100
AcDbEntity
  8
0
100
AcDbLine
 10
83.39117059253738
 20
-108.9723032847857
 30
0.0
 11
-35.45882940746264
 21
-108.9723032847904
 31
0.0
  0
LINE
  5
A5
330
1F
100
AcDbEntity
  8
0
100
AcDbLine
 10
83.39117059253638
 20
-82.97230328478595
 30
0.0
 11
83.39117059253738
 21
-108.9723032847857
 31
0.0
  0
LINE
  5
A6
330
1F
100
AcDbEntity
  8
0
100
AcDbLine
 10
-35.45882940746367
 20
-82.97230328479064
 30
0.0
 11
83.39117059253638
 21
-82.97230328478595
 31
0.0
  0
LINE
  5
A7
330
1F
100
AcDbEntity
  8
0
100
AcDbLine
 10
-35.45882940746264
 20
-108.9723032847904
 30
0.0
 11
-35.45882940746367
 21
-82.97230328479064
 31
0.0
  0
LINE
  5
A8
330
1F
100
AcDbEntity
  8
0
100
AcDbLine
 10
55.71426364753864
 20
6.832225934572466
 30
0.0
 11
55.55481292657086
 21
6.185195026316225
 31
0.0
  0
LINE
  5
A9
330
1F
100
AcDbEntity
  8
0
100
AcDbLine
 10
55.55481292657086
 20
6.185195026316225
 30
0.0
 11
55.23333143534093
 21
5.601480044965975
 31
0.0
  0
LINE
  5
AA
330
1F
100
AcDbEntity
  8
0
100
AcDbLine
 10
55.23333143534093
 20
5.601480044965975
 30
0.0
 11
54.77172760620296
 21
5.120860201866152
 31
0.0
  0
LINE
  5
AB
330
1F
100
AcDbEntity
  8
0
100
AcDbLine
 10
54.77172760620296
 20
5.120860201866152
 30
0.0
 11
54.20145897727617
 21
4.776088945062252
 31
0.0
  0
LINE
  5
AC
330
1F
100
AcDbEntity
  8
0
100
AcDbLine
 10
54.20145897727617
 20
4.776088945062252
 30
0.0
 11
53.56138841320866
 21
4.590661865943988
 31
0.0
  0
LINE
  5
AD
330
1F
100
AcDbEntity
  8
0
100
AcDbLine
 10
53.56138841320866
 20
4.590661865943988
 30
0.0
 11
53.17719444583071
 21
4.58290804053824
 31
0.0
  0
LINE
  5
AE
330
1F
100
AcDbEntity
  8
0
100
AcDbLine
 10
53.17719444583071
 20
4.58290804053824
 30
0.0
 11
52.89513566517483
 21
4.577215513520432
 31
0.0
  0
LINE
  5
AF
330
1F
100
AcDbEntity
  8
0
100
AcDbLine
 10
52.89513566517483
 20
4.577215513520432
 30
0.0
 11
52.24810475691849
 21
4.736666234488211
 31
0.0
  0
LINE
  5
B0
330
1F
100
AcDbEntity
  8
0
100
AcDbLine
 10
52.24810475691849
 20
4.736666234488211
 30
0.0
 11
51.66438977556825
 21
5.058147725718142
 31
0.0
  0
LINE
  5
B1
330
1F
100
AcDbEntity
  8
0
100
AcDbLine
 10
51.66438977556825
 20
5.058147725718142
 30
0.0
 11
51.18376993246851
 21
5.519751554856119
 31
0.0
  0
LINE
  5
B2
330
1F
100
AcDbEntity
  8
0
100
AcDbLine
 10
51.18376993246851
 20
5.519751554856119
 30
0.0
 11
50.83899867566461
 21
6.090020183782903
 31
0.0
  0
LINE
  5
B3
330
1F
100
AcDbEntity
  8
0
100
AcDbLine
 10
50.83899867566461
 20
6.090020183782903
 30
0.0
 11
50.65357159654626
 21
6.730090747850415
 31
0.0
  0
LINE
  5
B4
330
1F
100
AcDbEntity
  8
0
100
AcDbLine
 10
50.65357159654626
 20
6.730090747850415
 30
0.0
 11
50.64012524412279
 21
7.396343495884246
 31
0.0
  0
LINE
  5
B5
330
1F
100
AcDbEntity
  8
0
100
AcDbLine
 10
50.64012524412279
 20
7.396343495884246
 30
0.0
 11
50.79957596509058
 21
8.043374404140577
 31
0.0
  0
LINE
  5
B6
330
1F
100
AcDbEntity
  8
0
100
AcDbLine
 10
50.79957596509058
 20
8.043374404140577
 30
0.0
 11
51.12105745632051
 21
8.627089385490827
 31
0.0
  0
LINE
  5
B7
330
1F
100
AcDbEntity
  8
0
100
AcDbLine
 10
51.12105745632051
 20
8.627089385490827
 30
0.0
 11
51.58266128545848
 21
9.10770922859056
 31
0.0
  0
LINE
  5
B8
330
1F
100
AcDbEntity
  8
0
100
AcDbLine
 10
51.58266128545848
 20
9.10770922859056
 30
0.0
 11
52.15292991438518
 21
9.45248048539446
 31
0.0
  0
LINE
  5
B9
330
1F
100
AcDbEntity
  8
0
100
AcDbLine
 10
52.15292991438518
 20
9.45248048539446
 30
0.0
 11
52.79300047845278
 21
9.637907564512815
 31
0.0
  0
LINE
  5
BA
330
1F
100
AcDbEntity
  8
0
100
AcDbLine
 10
52.79300047845278
 20
9.637907564512815
 30
0.0
 11
53.45925322648661
 21
9.65135391693628
 31
0.0
  0
LINE
  5
BB
330
1F
100
AcDbEntity
  8
0
100
AcDbLine
 10
53.45925322648661
 20
9.65135391693628
 30
0.0
 11
54.10628413474285
 21
9.491903195968503
 31
0.0
  0
LINE
  5
BC
330
1F
100
AcDbEntity
  8
0
100
AcDbLine
 10
54.10628413474285
 20
9.491903195968503
 30
0.0
 11
54.6899991160931
 21
9.17042170473857
 31
0.0
  0
LINE
  5
BD
330
1F
100
AcDbEntity
  8
0
100
AcDbLine
 10
54.6899991160931
 20
9.17042170473857
 30
0.0
 11
55.17061895919292
 21
8.708817875600593
 31
0.0
  0
LINE
  5
BE
330
1F
100
AcDbEntity
  8
0
100
AcDbLine
 10
55.17061895919292
 20
8.708817875600593
 30
0.0
 11
55.51539021599682
 21
8.1385492466739
 31
0.0
  0
LINE
  5
BF
330
1F
100
AcDbEntity
  8
0
100
AcDbLine
 10
55.51539021599682
 20
8.1385492466739
 30
0.0
 11
55.70081729511509
 21
7.498478682606297
 31
0.0
  0
LINE
  5
C0
330
1F
100
AcDbEntity
  8
0
100
AcDbLine
 10
55.70081729511509
 20
7.498478682606297
 30
0.0
 11
55.70857112052084
 21
7.114284715228356
 31
0.0
  0
LINE
  5
C1
330
1F
100
AcDbEntity
  8
0
100
AcDbLine
 10
55.70857112052084
 20
7.114284715228356
 30
0.0
 11
55.71426364753864
 21
6.832225934572466
 31
0.0
  0
LINE
  5
C2
330
1F
100
AcDbEntity
  8
0
100
AcDbLine
 10
42.37853384121428
 20
11.2642847152284
 30
0.0
 11
42.37853384121428
 21
-3.300807284771633
 31
0.0
  0
LINE
  5
C3
330
1F
100
AcDbEntity
  8
0
100
AcDbLine
 10
42.37853384121428
 20
-3.300807284771633
 30
0.0
 11
64.23267519241874
 21
-3.300807284771633
 31
0.0
  0
LINE
  5
C4
330
1F
100
AcDbEntity
  8
0
100
AcDbLine
 10
62.38700045839065
 20
13.05891612777457
 30
0.0
 11
61.85914920387629
 21
13.73720513702911
 31
0.0
  0
LINE
  5
C5
330
1F
100
AcDbEntity
  8
0
100
AcDbLine
 10
61.85914920387629
 20
13.73720513702911
 30
0.0
 11
61.37935680978605
 21
14.45029852890783
 31
0.0
  0
LINE
  5
C6
330
1F
100
AcDbEntity
  8
0
100
AcDbLine
 10
60.94991018812931
 20
15.1947973711605
 30
0.0
 11
60.57285627972568
 21
15.96715303866432
 31
0.0
  0
LINE
  5
C7
330
1F
100
AcDbEntity
  8
0
100
AcDbLine
 10
60.57285627972568
 20
15.96715303866432
 30
0.0
 11
60.24999229754049
 21
16.7636841278099
 31
0.0
  0
LINE
  5
C8
330
1F
100
AcDbEntity
  8
0
100
AcDbLine
 10
60.24999229754049
 20
16.7636841278099
 30
0.0
 11
59.98285716033811
 21
17.58059400376914
 31
0.0
  0
LINE
  5
C9
330
1F
100
AcDbEntity
  8
0
100
AcDbLine
 10
59.98285716033811
 20
17.58059400376914
 30
0.0
 11
59.77272415748474
 21
18.41398889700985
 31
0.0
  0
LINE
  5
CA
330
1F
100
AcDbEntity
  8
0
100
AcDbLine
 10
59.77272415748474
 20
18.41398889700985
 30
0.0
 11
59.62059487986367
 21
19.2598964627984
 31
0.0
  0
LINE
  5
CB
330
1F
100
AcDbEntity
  8
0
100
AcDbLine
 10
42.37853384121428
 20
11.2642847152284
 30
0.0
 11
42.99526252334905
 21
11.84315910272737
 31
0.0
  0
LINE
  5
CC
330
1F
100
AcDbEntity
  8
0
100
AcDbLine
 10
42.99526252334905
 20
11.84315910272737
 30
0.0
 11
43.57378840002275
 21
12.46021471925547
 31
0.0
  0
LINE
  5
CD
330
1F
100
AcDbEntity
  8
0
100
AcDbLine
 10
43.57378840002275
 20
12.46021471925547
 30
0.0
 11
44.11175252070263
 21
13.11293550851472
 31
0.0
  0
LINE
  5
CE
330
1F
100
AcDbEntity
  8
0
100
AcDbLine
 10
44.11175252070263
 20
13.11293550851472
 30
0.0
 11
44.60696132620579
 21
13.79865998877053
 31
0.0
  0
LINE
  5
CF
330
1F
100
AcDbEntity
  8
0
100
AcDbLine
 10
44.60696132620579
 20
13.79865998877053
 30
0.0
 11
45.05739559298025
 21
14.5145921050953
 31
0.0
  0
LINE
  5
D0
330
1F
100
AcDbEntity
  8
0
100
AcDbLine
 10
45.05739559298025
 20
14.5145921050953
 30
0.0
 11
45.46121866652772
 21
15.25781263033714
 31
0.0
  0
LINE
  5
D1
330
1F
100
AcDbEntity
  8
0
100
AcDbLine
 10
45.46121866652772
 20
15.25781263033714
 30
0.0
 11
45.81678395039869
 21
16.02529106832464
 31
0.0
  0
LINE
  5
D2
330
1F
100
AcDbEntity
  8
0
100
AcDbLine
 10
45.81678395039869
 20
16.02529106832464
 30
0.0
 11
46.12264162022085
 21
16.81389801077503
 31
0.0
  0
LINE
  5
D3
330
1F
100
AcDbEntity
  8
0
100
AcDbLine
 10
46.12264162022085
 20
16.81389801077503
 30
0.0
 11
46.37754453538684
 21
17.62041789751668
 31
0.0
  0
LINE
  5
D4
330
1F
100
AcDbEntity
  8
0
100
AcDbLine
 10
46.37754453538684
 20
17.62041789751668
 30
0.0
 11
46.58045332429414
 21
18.44156212799894
 31
0.0
  0
LINE
  5
D5
330
1F
100
AcDbEntity
  8
0
100
AcDbLine
 10
46.58045332429414
 20
18.44156212799894
 30
0.0
 11
46.73054062240276
 21
19.27398247062424
 31
0.0
  0
LINE
  5
D6
330
1F
100
AcDbEntity
  8
0
100
AcDbLine
 10
46.73054062240276
 20
19.27398247062424
 30
0.0
 11
46.82719444583072
 21
20.11428471522838
 31
0.0
  0
LINE
  5
D7
330
1F
100
AcDbEntity
  8
0
100
AcDbLine
 10
46.82719444583072
 20
20.11428471522838
 30
0.0
 11
59.52719444583072
 21
20.11428471522838
 31
0.0
  0
LINE
  5
D8
330
1F
100
AcDbEntity
  8
0
100
AcDbLine
 10
59.62059487986367
 20
19.2598964627984
 30
0.0
 11
59.52719444583072
 21
20.11428471522838
 31
0.0
  0
LINE
  5
D9
330
1F
100
AcDbEntity
  8
0
100
AcDbLine
 10
61.37935680978605
 20
14.45029852890783
 30
0.0
 11
60.94991018812931
 21
15.1947973711605
 31
0.0
  0
LINE
  5
DA
330
1F
100
AcDbEntity
  8
0
100
AcDbLine
 10
62.96039459060836
 20
12.41866453964209
 30
0.0
 11
62.38700045839065
 21
13.05891612777457
 31
0.0
  0
LINE
  5
DB
330
1F
100
AcDbEntity
  8
0
100
AcDbLine
 10
63.5765985394321
 20
11.81950210722333
 30
0.0
 11
62.96039459060836
 21
12.41866453964209
 31
0.0
  0
LINE
  5
DC
330
1F
100
AcDbEntity
  8
0
100
AcDbLine
 10
64.23267519241874
 20
11.2642847152284
 30
0.0
 11
63.5765985394321
 21
11.81950210722333
 31
0.0
  0
LINE
  5
DD
330
1F
100
AcDbEntity
  8
0
100
AcDbLine
 10
64.23267519241874
 20
11.2642847152284
 30
0.0
 11
64.23267519241874
 21
-3.300807284771633
 31
0.0
  0
LINE
  5
DE
330
1F
100
AcDbEntity
  8
0
100
AcDbLine
 10
39.42143498313661
 20
-76.5764174548807
 30
0.0
 11
39.4739478412143
 21
-79.33088519014773
 31
0.0
  0
LINE
  5
DF
330
1F
100
AcDbEntity
  8
0
100
AcDbLine
 10
39.154394930541
 20
-73.8344218831847
 30
0.0
 11
39.42143498313661
 21
-76.5764174548807
 31
0.0
  0
LINE
  5
E0
330
1F
100
AcDbEntity
  8
0
100
AcDbLine
 10
38.67445238409943
 20
-71.12158107381062
 30
0.0
 11
39.154394930541
 21
-73.8344218831847
 31
0.0
  0
LINE
  5
E1
330
1F
100
AcDbEntity
  8
0
100
AcDbLine
 10
37.98452736637075
 20
-68.4544002447698
 30
0.0
 11
38.67445238409943
 21
-71.12158107381062
 31
0.0
  0
LINE
  5
E2
330
1F
100
AcDbEntity
  8
0
100
AcDbLine
 10
37.08881745606656
 20
-65.84910681379635
 30
0.0
 11
37.98452736637075
 21
-68.4544002447698
 31
0.0
  0
LINE
  5
E3
330
1F
100
AcDbEntity
  8
0
100
AcDbLine
 10
35.99277224952633
 20
-63.32155166897532
 30
0.0
 11
37.08881745606656
 21
-65.84910681379635
 31
0.0
  0
LINE
  5
E4
330
1F
100
AcDbEntity
  8
0
100
AcDbLine
 10
34.70306020478211
 20
-60.8871127302192
 30
0.0
 11
35.99277224952633
 21
-63.32155166897532
 31
0.0
  0
LINE
  5
E5
330
1F
100
AcDbEntity
  8
0
100
AcDbLine
 10
33.22752806993518
 20
-58.56060138833312
 30
0.0
 11
34.70306020478211
 21
-60.8871127302192
 31
0.0
  0
LINE
  5
E6
330
1F
100
AcDbEntity
  8
0
100
AcDbLine
 10
31.57515314268949
 20
-56.35617239090537
 30
0.0
 11
33.22752806993518
 21
-58.56060138833312
 31
0.0
  0
LINE
  5
E7
330
1F
100
AcDbEntity
  8
0
100
AcDbLine
 10
29.75598865149709
 20
-54.28723772328644
 30
0.0
 11
31.57515314268949
 21
-56.35617239090537
 31
0.0
  0
LINE
  5
E8
330
1F
100
AcDbEntity
  8
0
100
AcDbLine
 10
27.78110259062521
 20
-52.36638500861402
 30
0.0
 11
29.75598865149709
 21
-54.28723772328644
 31
0.0
  0
LINE
  5
E9
330
1F
100
AcDbEntity
  8
0
100
AcDbLine
 10
25.66251038127735
 20
-50.60530092334685
 30
0.0
 11
27.78110259062521
 21
-52.36638500861402
 31
0.0
  0
LINE
  5
EA
330
1F
100
AcDbEntity
  8
0
100
AcDbLine
 10
23.43127394553388
 20
-48.64855908582801
 30
0.0
 11
25.66251038127735
 21
-50.60530092334685
 31
0.0
  0
LINE
  5
EB
330
1F
100
AcDbEntity
  8
0
100
AcDbLine
 10
21.474532108015
 20
-46.4173226500845
 30
0.0
 11
23.43127394553388
 21
-48.64855908582801
 31
0.0
  0
LINE
  5
EC
330
1F
100
AcDbEntity
  8
0
100
AcDbLine
 10
19.82576526407199
 20
-43.94976869014765
 30
0.0
 11
21.474532108015
 21
-46.4173226500845
 31
0.0
  0
LINE
  5
ED
330
1F
100
AcDbEntity
  8
0
100
AcDbLine
 10
18.51318427152925
 20
-41.28811773840704
 30
0.0
 11
19.82576526407199
 21
-43.94976869014765
 31
0.0
  0
LINE
  5
EE
330
1F
100
AcDbEntity
  8
0
100
AcDbLine
 10
17.55924775508542
 20
-38.47791138059608
 30
0.0
 11
18.51318427152925
 21
-41.28811773840704
 31
0.0
  0
LINE
  5
EF
330
1F
100
AcDbEntity
  8
0
100
AcDbLine
 10
16.98027783301796
 20
-35.56723302663341
 30
0.0
 11
17.55924775508542
 21
-38.47791138059608
 31
0.0
  0
LINE
  5
F0
330
1F
100
AcDbEntity
  8
0
100
AcDbLine
 10
16.78618084121426
 20
-32.60588519014765
 30
0.0
 11
16.98027783301796
 21
-35.56723302663341
 31
0.0
  0
LINE
  5
F1
330
1F
100
AcDbEntity
  8
0
100
AcDbLine
 10
16.78618084121426
 20
-32.60588519014765
 30
0.0
 11
16.98027783301796
 21
-29.6445373536619
 31
0.0
  0
LINE
  5
F2
330
1F
100
AcDbEntity
  8
0
100
AcDbLine
 10
16.98027783301796
 20
-29.6445373536619
 30
0.0
 11
17.55924775508542
 21
-26.73385899969914
 31
0.0
  0
LINE
  5
F3
330
1F
100
AcDbEntity
  8
0
100
AcDbLine
 10
17.55924775508542
 20
-26.73385899969914
 30
0.0
 11
18.51318427152925
 21
-23.92365264188817
 31
0.0
  0
LINE
  5
F4
330
1F
100
AcDbEntity
  8
0
100
AcDbLine
 10
18.51318427152925
 20
-23.92365264188817
 30
0.0
 11
19.82576526407199
 21
-21.26200169014765
 31
0.0
  0
LINE
  5
F5
330
1F
100
AcDbEntity
  8
0
100
AcDbLine
 10
19.82576526407199
 20
-21.26200169014765
 30
0.0
 11
21.474532108015
 21
-18.7944477302107
 31
0.0
  0
LINE
  5
F6
330
1F
100
AcDbEntity
  8
0
100
AcDbLine
 10
21.474532108015
 20
-18.7944477302107
 30
0.0
 11
23.43127394553388
 21
-16.56321129446729
 31
0.0
  0
LINE
  5
F7
330
1F
100
AcDbEntity
  8
0
100
AcDbLine
 10
23.43127394553388
 20
-16.56321129446729
 30
0.0
 11
25.66251038127735
 21
-14.60646945694836
 31
0.0
  0
LINE
  5
F8
330
1F
100
AcDbEntity
  8
0
100
AcDbLine
 10
27.78110259062526
 20
-12.84538537168127
 30
0.0
 11
25.66251038127735
 21
-14.60646945694836
 31
0.0
  0
LINE
  5
F9
330
1F
100
AcDbEntity
  8
0
100
AcDbLine
 10
29.75598865149709
 20
-10.92453265700886
 30
0.0
 11
27.78110259062526
 21
-12.84538537168127
 31
0.0
  0
LINE
  5
FA
330
1F
100
AcDbEntity
  8
0
100
AcDbLine
 10
31.57515314268949
 20
-8.855597989389922
 30
0.0
 11
29.75598865149709
 21
-10.92453265700886
 31
0.0
  0
LINE
  5
FB
330
1F
100
AcDbEntity
  8
0
100
AcDbLine
 10
33.22752806993518
 20
-6.65116899196218
 30
0.0
 11
31.57515314268949
 21
-8.855597989389922
 31
0.0
  0
LINE
  5
FC
330
1F
100
AcDbEntity
  8
0
100
AcDbLine
 10
34.70306020478211
 20
-4.32465765007608
 30
0.0
 11
33.22752806993518
 21
-6.65116899196218
 31
0.0
  0
LINE
  5
FD
330
1F
100
AcDbEntity
  8
0
100
AcDbLine
 10
35.99277224952633
 20
-1.890218711319879
 30
0.0
 11
34.70306020478211
 21
-4.32465765007608
 31
0.0
  0
LINE
  5
FE
330
1F
100
AcDbEntity
  8
0
100
AcDbLine
 10
37.08881745606656
 20
0.637336433501023
 30
0.0
 11
35.99277224952633
 21
-1.890218711319879
 31
0.0
  0
LINE
  5
FF
330
1F
100
AcDbEntity
  8
0
100
AcDbLine
 10
37.98452736637075
 20
3.242629864474476
 30
0.0
 11
37.08881745606656
 21
0.637336433501023
 31
0.0
  0
LINE
  5
100
330
1F
100
AcDbEntity
  8
0
100
AcDbLine
 10
38.67445238409943
 20
5.909810693515272
 30
0.0
 11
37.98452736637075
 21
3.242629864474476
 31
0.0
  0
LINE
  5
101
330
1F
100
AcDbEntity
  8
0
100
AcDbLine
 10
39.154394930541
 20
8.62265150288945
 30
0.0
 11
38.67445238409943
 21
5.909810693515272
 31
0.0
  0
LINE
  5
102
330
1F
100
AcDbEntity
  8
0
100
AcDbLine
 10
39.42143498313661
 20
11.36464707458544
 30
0.0
 11
39.154394930541
 21
8.62265150288945
 31
0.0
  0
LINE
  5
103
330
1F
100
AcDbEntity
  8
0
100
AcDbLine
 10
39.4739478412143
 20
14.11911480985248
 30
0.0
 11
39.42143498313661
 21
11.36464707458544
 31
0.0
  0
LINE
  5
104
330
1F
100
AcDbEntity
  8
0
100
AcDbLine
 10
-35.4588294074634
 20
14.11911480985248
 30
0.0
 11
39.4739478412143
 21
14.11911480985248
 31
0.0
  0
LINE
  5
105
330
1F
100
AcDbEntity
  8
0
100
AcDbLine
 10
39.4739478412143
 20
-79.33088519014773
 30
0.0
 11
-35.4588294074634
 21
-79.33088519014773
 31
0.0
  0
LINE
  5
106
330
1F
100
AcDbEntity
  8
0
100
AcDbLine
 10
-35.4588294074634
 20
-79.33088519014773
 30
0.0
 11
-35.4588294074634
 21
14.11911480985248
 31
0.0
  0
LINE
  5
107
330
1F
100
AcDbEntity
  8
0
100
AcDbLine
 10
29.01041675797183
 20
23.02728640124099
 30
0.0
 11
-64.43958324202815
 21
23.02728640124099
 31
0.0
  0
LINE
  5
108
330
1F
100
AcDbEntity
  8
0
100
AcDbLine
 10
29.01041675797183
 20
23.02728640124099
 30
0.0
 11
29.01041675797183
 21
16.67728640124098
 31
0.0
  0
LINE
  5
109
330
1F
100
AcDbEntity
  8
0
100
AcDbLine
 10
29.01041675797183
 20
16.67728640124098
 30
0.0
 11
-64.43958324202815
 21
16.67728640124098
 31
0.0
  0
LINE
  5
10A
330
1F
100
AcDbEntity
  8
0
100
AcDbLine
 10
-64.43958324202815
 20
23.02728640124099
 30
0.0
 11
-64.43958324202815
 21
16.67728640124098
 31
0.0
  0
LINE
  5
10B
330
1F
100
AcDbEntity
  8
0
100
AcDbLine
 10
57.99117059253756
 20
-111.1791052845275
 30
0.0
 11
-35.45882940746237
 21
-111.1791052847695
 31
0.0
  0
LINE
  5
10C
330
1F
100
AcDbEntity
  8
0
100
AcDbLine
 10
57.99117059253756
 20
-111.1791052845275
 30
0.0
 11
57.99117059257528
 21
-125.7441972845274
 31
0.0
  0
LINE
  5
10D
330
1F
100
AcDbEntity
  8
0
100
AcDbLine
 10
57.99117059257528
 20
-125.7441972845274
 30
0.0
 11
-35.45882940742464
 21
-125.7441972847694
 31
0.0
  0
LINE
  5
10E
330
1F
100
AcDbEntity
  8
0
100
AcDbLine
 10
-35.45882940746237
 20
-111.1791052847695
 30
0.0
 11
-35.45882940742464
 21
-125.7441972847694
 31
0.0
  0
LINE
  5
10F
330
1F
100
AcDbEntity
  8
0
100
AcDbLine
 10
70.46676675797003
 20
33.01825327535132
 30
0.0
 11
69.85110413440329
 21
33.27326908387884
 31
0.0
  0
LINE
  5
110
330
1F
100
AcDbEntity
  8
0
100
AcDbLine
 10
70.99544823830495
 20
32.61258170744563
 30
0.0
 11
70.46676675797003
 21
33.01825327535132
 31
0.0
  0
LINE
  5
111
330
1F
100
AcDbEntity
  8
0
100
AcDbLine
 10
71.40111980621054
 20
32.08390022711071
 30
0.0
 11
70.99544823830495
 21
32.61258170744563
 31
0.0
  0
LINE
  5
112
330
1F
100
AcDbEntity
  8
0
100
AcDbLine
 10
71.65613561473816
 20
31.46823760354388
 30
0.0
 11
71.40111980621054
 21
32.08390022711071
 31
0.0
  0
LINE
  5
113
330
1F
100
AcDbEntity
  8
0
100
AcDbLine
 10
71.74311675797009
 20
30.80755022711062
 30
0.0
 11
71.65613561473816
 21
31.46823760354388
 31
0.0
  0
LINE
  5
114
330
1F
100
AcDbEntity
  8
0
100
AcDbLine
 10
71.65613561473816
 20
30.1468628506774
 30
0.0
 11
71.74311675797009
 21
30.80755022711062
 31
0.0
  0
LINE
  5
115
330
1F
100
AcDbEntity
  8
0
100
AcDbLine
 10
71.40111980621054
 20
29.53120022711066
 30
0.0
 11
71.65613561473816
 21
30.1468628506774
 31
0.0
  0
LINE
  5
116
330
1F
100
AcDbEntity
  8
0
100
AcDbLine
 10
70.99544823830495
 20
29.00251874677574
 30
0.0
 11
71.40111980621054
 21
29.53120022711066
 31
0.0
  0
LINE
  5
117
330
1F
100
AcDbEntity
  8
0
100
AcDbLine
 10
70.46676675797003
 20
28.59684717887014
 30
0.0
 11
70.99544823830495
 21
29.00251874677574
 31
0.0
  0
LINE
  5
118
330
1F
100
AcDbEntity
  8
0
100
AcDbLine
 10
69.85110413440329
 20
28.34183137034253
 30
0.0
 11
70.46676675797003
 21
28.59684717887014
 31
0.0
  0
LINE
  5
119
330
1F
100
AcDbEntity
  8
0
100
AcDbLine
 10
69.19041675797007
 20
28.25485022711061
 30
0.0
 11
69.85110413440329
 21
28.34183137034253
 31
0.0
  0
LINE
  5
11A
330
1F
100
AcDbEntity
  8
0
100
AcDbLine
 10
68.52972938153685
 20
28.34183137034253
 30
0.0
 11
69.19041675797007
 21
28.25485022711061
 31
0.0
  0
LINE
  5
11B
330
1F
100
AcDbEntity
  8
0
100
AcDbLine
 10
67.91406675797002
 20
28.59684717887014
 30
0.0
 11
68.52972938153685
 21
28.34183137034253
 31
0.0
  0
LINE
  5
11C
330
1F
100
AcDbEntity
  8
0
100
AcDbLine
 10
67.38538527763511
 20
29.00251874677574
 30
0.0
 11
67.91406675797002
 21
28.59684717887014
 31
0.0
  0
LINE
  5
11D
330
1F
100
AcDbEntity
  8
0
100
AcDbLine
 10
66.97971370972951
 20
29.53120022711066
 30
0.0
 11
67.38538527763511
 21
29.00251874677574
 31
0.0
  0
LINE
  5
11E
330
1F
100
AcDbEntity
  8
0
100
AcDbLine
 10
66.72469790120189
 20
30.1468628506774
 30
0.0
 11
66.97971370972951
 21
29.53120022711066
 31
0.0
  0
LINE
  5
11F
330
1F
100
AcDbEntity
  8
0
100
AcDbLine
 10
66.63771675797007
 20
30.80755022711062
 30
0.0
 11
66.72469790120189
 21
30.1468628506774
 31
0.0
  0
LINE
  5
120
330
1F
100
AcDbEntity
  8
0
100
AcDbLine
 10
66.72469790120189
 20
31.46823760354388
 30
0.0
 11
66.63771675797007
 21
30.80755022711062
 31
0.0
  0
LINE
  5
121
330
1F
100
AcDbEntity
  8
0
100
AcDbLine
 10
66.97971370972951
 20
32.08390022711071
 30
0.0
 11
66.72469790120189
 21
31.46823760354388
 31
0.0
  0
LINE
  5
122
330
1F
100
AcDbEntity
  8
0
100
AcDbLine
 10
67.38538527763511
 20
32.61258170744563
 30
0.0
 11
66.97971370972951
 21
32.08390022711071
 31
0.0
  0
LINE
  5
123
330
1F
100
AcDbEntity
  8
0
100
AcDbLine
 10
67.91406675797002
 20
33.01825327535132
 30
0.0
 11
67.38538527763511
 21
32.61258170744563
 31
0.0
  0
LINE
  5
124
330
1F
100
AcDbEntity
  8
0
100
AcDbLine
 10
68.52972938153685
 20
33.27326908387884
 30
0.0
 11
67.91406675797002
 21
33.01825327535132
 31
0.0
  0
LINE
  5
125
330
1F
100
AcDbEntity
  8
0
100
AcDbLine
 10
69.19041675797007
 20
33.36025022711076
 30
0.0
 11
68.52972938153685
 21
33.27326908387884
 31
0.0
  0
LINE
  5
126
330
1F
100
AcDbEntity
  8
0
100
AcDbLine
 10
69.85110413440329
 20
33.27326908387884
 30
0.0
 11
69.19041675797007
 21
33.36025022711076
 31
0.0
  0
LINE
  5
127
330
1F
100
AcDbEntity
  8
0
100
AcDbLine
 10
60.62018363834515
 20
24.12317495356862
 30
0.0
 11
61.0706179051196
 21
23.40724283724376
 31
0.0
  0
LINE
  5
128
330
1F
100
AcDbEntity
  8
0
100
AcDbLine
 10
61.0706179051196
 20
23.40724283724376
 30
0.0
 11
61.47444097866708
 21
22.66402231200201
 31
0.0
  0
LINE
  5
129
330
1F
100
AcDbEntity
  8
0
100
AcDbLine
 10
61.47444097866708
 20
22.66402231200201
 30
0.0
 11
61.83000626253796
 21
21.89654387401452
 31
0.0
  0
LINE
  5
12A
330
1F
100
AcDbEntity
  8
0
100
AcDbLine
 10
61.83000626253796
 20
21.89654387401452
 30
0.0
 11
62.13586393236021
 21
21.10793693156413
 31
0.0
  0
LINE
  5
12B
330
1F
100
AcDbEntity
  8
0
100
AcDbLine
 10
62.13586393236021
 20
21.10793693156413
 30
0.0
 11
62.39076684752619
 21
20.30141704482238
 31
0.0
  0
LINE
  5
12C
330
1F
100
AcDbEntity
  8
0
100
AcDbLine
 10
62.39076684752619
 20
20.30141704482238
 30
0.0
 11
62.5936756364335
 21
19.48027281434022
 31
0.0
  0
LINE
  5
12D
330
1F
100
AcDbEntity
  8
0
100
AcDbLine
 10
62.5936756364335
 20
19.48027281434022
 30
0.0
 11
62.74376293454212
 21
18.64785247171492
 31
0.0
  0
LINE
  5
12E
330
1F
100
AcDbEntity
  8
0
100
AcDbLine
 10
62.74376293454212
 20
18.64785247171492
 30
0.0
 11
62.84041675797008
 21
17.80755022711078
 31
0.0
  0
LINE
  5
12F
330
1F
100
AcDbEntity
  8
0
100
AcDbLine
 10
62.84041675797008
 20
17.80755022711078
 30
0.0
 11
75.54041675797008
 21
17.80755022711078
 31
0.0
  0
LINE
  5
130
330
1F
100
AcDbEntity
  8
0
100
AcDbLine
 10
75.63381719200294
 20
18.66193847954076
 30
0.0
 11
75.54041675797008
 21
17.80755022711078
 31
0.0
  0
LINE
  5
131
330
1F
100
AcDbEntity
  8
0
100
AcDbLine
 10
75.7859464696241
 20
19.50784604532931
 30
0.0
 11
75.63381719200294
 21
18.66193847954076
 31
0.0
  0
LINE
  5
132
330
1F
100
AcDbEntity
  8
0
100
AcDbLine
 10
67.67907236763662
 20
119.4285725583117
 30
0.0
 11
68.12950663441107
 21
120.1445046746365
 31
0.0
  0
LINE
  5
133
330
1F
100
AcDbEntity
  8
0
100
AcDbLine
 10
68.12950663441107
 20
120.1445046746365
 30
0.0
 11
68.53332970795854
 21
120.8877251998782
 31
0.0
  0
LINE
  5
134
330
1F
100
AcDbEntity
  8
0
100
AcDbLine
 10
68.53332970795854
 20
120.8877251998782
 30
0.0
 11
68.88889499182943
 21
121.6552036378658
 31
0.0
  0
LINE
  5
135
330
1F
100
AcDbEntity
  8
0
100
AcDbLine
 10
68.88889499182943
 20
121.6552036378658
 30
0.0
 11
69.19475266165168
 21
122.4438105803161
 31
0.0
  0
LINE
  5
136
330
1F
100
AcDbEntity
  8
0
100
AcDbLine
 10
69.19475266165168
 20
122.4438105803161
 30
0.0
 11
69.44965557681768
 21
123.2503304670578
 31
0.0
  0
LINE
  5
137
330
1F
100
AcDbEntity
  8
0
100
AcDbLine
 10
69.44965557681768
 20
123.2503304670578
 30
0.0
 11
69.65256436572497
 21
124.07147469754
 31
0.0
  0
LINE
  5
138
330
1F
100
AcDbEntity
  8
0
100
AcDbLine
 10
69.65256436572497
 20
124.07147469754
 30
0.0
 11
69.80265166383359
 21
124.9038950401653
 31
0.0
  0
LINE
  5
139
330
1F
100
AcDbEntity
  8
0
100
AcDbLine
 10
69.80265166383359
 20
124.9038950401653
 30
0.0
 11
69.89930548726154
 21
125.7441972847694
 31
0.0
  0
LINE
  5
13A
330
1F
100
AcDbEntity
  8
0
100
AcDbLine
 10
69.89930548726154
 20
125.7441972847694
 30
0.0
 11
82.59930548726155
 21
125.7441972847694
 31
0.0
  0
LINE
  5
13B
330
1F
100
AcDbEntity
  8
0
100
AcDbLine
 10
82.69270592129442
 20
124.8898090323395
 30
0.0
 11
82.59930548726155
 21
125.7441972847694
 31
0.0
  0
LINE
  5
13C
330
1F
100
AcDbEntity
  8
0
100
AcDbLine
 10
82.84483519891556
 20
124.043901466551
 30
0.0
 11
82.69270592129442
 21
124.8898090323395
 31
0.0
  0
LINE
  5
13D
330
1F
100
AcDbEntity
  8
0
100
AcDbLine
 10
83.05496820176893
 20
123.2105065733102
 30
0.0
 11
82.84483519891556
 21
124.043901466551
 31
0.0
  0
LINE
  5
13E
330
1F
100
AcDbEntity
  8
0
100
AcDbLine
 10
83.32210333897132
 20
122.393596697351
 30
0.0
 11
83.05496820176893
 21
123.2105065733102
 31
0.0
  0
LINE
  5
13F
330
1F
100
AcDbEntity
  8
0
100
AcDbLine
 10
83.6449673211565
 20
121.5970656082055
 30
0.0
 11
83.32210333897132
 21
122.393596697351
 31
0.0
  0
LINE
  5
140
330
1F
100
AcDbEntity
  8
0
100
AcDbLine
 10
84.02202122956005
 20
120.8247099407016
 30
0.0
 11
83.6449673211565
 21
121.5970656082055
 31
0.0
  0
LINE
  5
141
330
1F
100
AcDbEntity
  8
0
100
AcDbLine
 10
84.45146785121689
 20
120.0802110984489
 30
0.0
 11
84.02202122956005
 21
120.8247099407016
 31
0.0
  0
LINE
  5
142
330
1F
100
AcDbEntity
  8
0
100
AcDbLine
 10
84.93126024530713
 20
119.3671177065703
 30
0.0
 11
84.45146785121689
 21
120.0802110984489
 31
0.0
  0
LINE
  5
143
330
1F
100
AcDbEntity
  8
0
100
AcDbLine
 10
85.45911149982147
 20
118.6888286973157
 30
0.0
 11
84.93126024530713
 21
119.3671177065703
 31
0.0
  0
LINE
  5
144
330
1F
100
AcDbEntity
  8
0
100
AcDbLine
 10
86.03250563203919
 20
118.0485771091831
 30
0.0
 11
85.45911149982147
 21
118.6888286973157
 31
0.0
  0
LINE
  5
145
330
1F
100
AcDbEntity
  8
0
100
AcDbLine
 10
86.64870958086293
 20
117.4494146767646
 30
0.0
 11
86.03250563203919
 21
118.0485771091831
 31
0.0
  0
LINE
  5
146
330
1F
100
AcDbEntity
  8
0
100
AcDbLine
 10
87.30478623384955
 20
116.8941972847695
 30
0.0
 11
86.64870958086293
 21
117.4494146767646
 31
0.0
  0
LINE
  5
147
330
1F
100
AcDbEntity
  8
0
100
AcDbLine
 10
103.7533304872615
 20
116.8941972847695
 30
0.0
 11
87.30478623384955
 21
116.8941972847695
 31
0.0
  0
LINE
  5
148
330
1F
100
AcDbEntity
  8
0
100
AcDbLine
 10
103.7533304872615
 20
102.3291052847693
 30
0.0
 11
-57.3806945127385
 21
102.3291052847693
 31
0.0
  0
LINE
  5
149
330
1F
100
AcDbEntity
  8
0
100
AcDbLine
 10
103.7533304872615
 20
116.8941972847695
 30
0.0
 11
103.7533304872615
 21
102.3291052847693
 31
0.0
  0
LINE
  5
14A
330
1F
100
AcDbEntity
  8
0
100
AcDbLine
 10
-57.3806945127385
 20
116.8941972847695
 30
0.0
 11
-57.3806945127385
 21
102.3291052847693
 31
0.0
  0
LINE
  5
14B
330
1F
100
AcDbEntity
  8
0
100
AcDbLine
 10
65.45064488264512
 20
116.8941972847695
 30
0.0
 11
-57.3806945127385
 21
116.8941972847695
 31
0.0
  0
LINE
  5
14C
330
1F
100
AcDbEntity
  8
0
100
AcDbLine
 10
65.45064488264512
 20
116.8941972847695
 30
0.0
 11
66.06737356477979
 21
117.4730716722686
 31
0.0
  0
LINE
  5
14D
330
1F
100
AcDbEntity
  8
0
100
AcDbLine
 10
66.06737356477979
 20
117.4730716722686
 30
0.0
 11
66.64589944145358
 21
118.0901272887965
 31
0.0
  0
LINE
  5
14E
330
1F
100
AcDbEntity
  8
0
100
AcDbLine
 10
66.64589944145358
 20
118.0901272887965
 30
0.0
 11
67.18386356213347
 21
118.7428480780558
 31
0.0
  0
LINE
  5
14F
330
1F
100
AcDbEntity
  8
0
100
AcDbLine
 10
67.18386356213347
 20
118.7428480780558
 30
0.0
 11
67.67907236763662
 21
119.4285725583117
 31
0.0
  0
LINE
  5
150
330
1F
100
AcDbEntity
  8
0
100
AcDbLine
 10
75.58861811082834
 20
110.2784784280013
 30
0.0
 11
76.24930548726155
 21
110.1914972847694
 31
0.0
  0
LINE
  5
151
330
1F
100
AcDbEntity
  8
0
100
AcDbLine
 10
76.24930548726155
 20
110.1914972847694
 30
0.0
 11
76.90999286369477
 21
110.2784784280013
 31
0.0
  0
LINE
  5
152
330
1F
100
AcDbEntity
  8
0
100
AcDbLine
 10
76.90999286369477
 20
110.2784784280013
 30
0.0
 11
77.5256554872615
 21
110.533494236529
 31
0.0
  0
LINE
  5
153
330
1F
100
AcDbEntity
  8
0
100
AcDbLine
 10
77.5256554872615
 20
110.533494236529
 30
0.0
 11
78.05433696759643
 21
110.9391658044346
 31
0.0
  0
LINE
  5
154
330
1F
100
AcDbEntity
  8
0
100
AcDbLine
 10
78.05433696759643
 20
110.9391658044346
 30
0.0
 11
78.46000853550203
 21
111.4678472847695
 31
0.0
  0
LINE
  5
155
330
1F
100
AcDbEntity
  8
0
100
AcDbLine
 10
78.46000853550203
 20
111.4678472847695
 30
0.0
 11
78.71502434402964
 21
112.0835099083364
 31
0.0
  0
LINE
  5
156
330
1F
100
AcDbEntity
  8
0
100
AcDbLine
 10
78.71502434402964
 20
112.0835099083364
 30
0.0
 11
78.80200548726155
 21
112.7441972847695
 31
0.0
  0
LINE
  5
157
330
1F
100
AcDbEntity
  8
0
100
AcDbLine
 10
78.80200548726155
 20
112.7441972847695
 30
0.0
 11
78.71502434402964
 21
113.4048846612028
 31
0.0
  0
LINE
  5
158
330
1F
100
AcDbEntity
  8
0
100
AcDbLine
 10
78.71502434402964
 20
113.4048846612028
 30
0.0
 11
78.46000853550203
 21
114.0205472847695
 31
0.0
  0
LINE
  5
159
330
1F
100
AcDbEntity
  8
0
100
AcDbLine
 10
78.46000853550203
 20
114.0205472847695
 30
0.0
 11
78.05433696759643
 21
114.5492287651044
 31
0.0
  0
LINE
  5
15A
330
1F
100
AcDbEntity
  8
0
100
AcDbLine
 10
78.05433696759643
 20
114.5492287651044
 30
0.0
 11
77.5256554872615
 21
114.9549003330102
 31
0.0
  0
LINE
  5
15B
330
1F
100
AcDbEntity
  8
0
100
AcDbLine
 10
77.5256554872615
 20
114.9549003330102
 30
0.0
 11
76.90999286369477
 21
115.2099161415377
 31
0.0
  0
LINE
  5
15C
330
1F
100
AcDbEntity
  8
0
100
AcDbLine
 10
76.90999286369477
 20
115.2099161415377
 30
0.0
 11
76.24930548726155
 21
115.2968972847696
 31
0.0
  0
LINE
  5
15D
330
1F
100
AcDbEntity
  8
0
100
AcDbLine
 10
76.24930548726155
 20
115.2968972847696
 30
0.0
 11
75.58861811082834
 21
115.2099161415377
 31
0.0
  0
LINE
  5
15E
330
1F
100
AcDbEntity
  8
0
100
AcDbLine
 10
75.58861811082834
 20
115.2099161415377
 30
0.0
 11
74.9729554872615
 21
114.9549003330102
 31
0.0
  0
LINE
  5
15F
330
1F
100
AcDbEntity
  8
0
100
AcDbLine
 10
74.9729554872615
 20
114.9549003330102
 30
0.0
 11
74.44427400692658
 21
114.5492287651044
 31
0.0
  0
LINE
  5
160
330
1F
100
AcDbEntity
  8
0
100
AcDbLine
 10
74.44427400692658
 20
114.5492287651044
 30
0.0
 11
74.03860243902098
 21
114.0205472847696
 31
0.0
  0
LINE
  5
161
330
1F
100
AcDbEntity
  8
0
100
AcDbLine
 10
74.03860243902098
 20
114.0205472847696
 30
0.0
 11
73.78358663049336
 21
113.4048846612028
 31
0.0
  0
LINE
  5
162
330
1F
100
AcDbEntity
  8
0
100
AcDbLine
 10
73.78358663049336
 20
113.4048846612028
 30
0.0
 11
73.69660548726154
 21
112.7441972847695
 31
0.0
  0
LINE
  5
163
330
1F
100
AcDbEntity
  8
0
100
AcDbLine
 10
73.69660548726154
 20
112.7441972847695
 30
0.0
 11
73.78358663049336
 21
112.0835099083364
 31
0.0
  0
LINE
  5
164
330
1F
100
AcDbEntity
  8
0
100
AcDbLine
 10
73.78358663049336
 20
112.0835099083364
 30
0.0
 11
74.03860243902098
 21
111.4678472847695
 31
0.0
  0
LINE
  5
165
330
1F
100
AcDbEntity
  8
0
100
AcDbLine
 10
74.03860243902098
 20
111.4678472847695
 30
0.0
 11
74.44427400692658
 21
110.9391658044346
 31
0.0
  0
LINE
  5
166
330
1F
100
AcDbEntity
  8
0
100
AcDbLine
 10
74.44427400692658
 20
110.9391658044346
 30
0.0
 11
74.9729554872615
 21
110.533494236529
 31
0.0
  0
LINE
  5
167
330
1F
100
AcDbEntity
  8
0
100
AcDbLine
 10
74.9729554872615
 20
110.533494236529
 30
0.0
 11
75.58861811082834
 21
110.2784784280013
 31
0.0
  0
LINE
  5
168
330
1F
100
AcDbEntity
  8
0
100
AcDbLine
 10
84.90075836606762
 20
-3.735446428821191
 30
0.0
 11
84.523704457664
 21
-4.507802096325011
 31
0.0
  0
LINE
  5
169
330
1F
100
AcDbEntity
  8
0
100
AcDbLine
 10
69.00824377091857
 20
-3.05524116275608
 30
0.0
 11
69.41206684446604
 21
-3.798461687997917
 31
0.0
  0
LINE
  5
16A
330
1F
100
AcDbEntity
  8
0
100
AcDbLine
 10
68.5578095041441
 20
-2.339309046431219
 30
0.0
 11
69.00824377091857
 21
-3.05524116275608
 31
0.0
  0
LINE
  5
16B
330
1F
100
AcDbEntity
  8
0
100
AcDbLine
 10
68.06260069864095
 20
-1.653584566175405
 30
0.0
 11
68.5578095041441
 21
-2.339309046431219
 31
0.0
  0
LINE
  5
16C
330
1F
100
AcDbEntity
  8
0
100
AcDbLine
 10
66.3293820191526
 20
0.1950662271109088
 30
0.0
 11
66.94611070128737
 21
-0.3838081603881462
 31
0.0
  0
LINE
  5
16D
330
1F
100
AcDbEntity
  8
0
100
AcDbLine
 10
66.3293820191526
 20
0.1950662271109088
 30
0.0
 11
66.3293820191526
 21
14.76015822711086
 31
0.0
  0
LINE
  5
16E
330
1F
100
AcDbEntity
  8
0
100
AcDbLine
 10
66.3293820191526
 20
14.76015822711086
 30
0.0
 11
88.18352337035705
 21
14.76015822711086
 31
0.0
  0
LINE
  5
16F
330
1F
100
AcDbEntity
  8
0
100
AcDbLine
 10
88.18352337035705
 20
0.1950662271109088
 30
0.0
 11
88.18352337035705
 21
14.76015822711086
 31
0.0
  0
LINE
  5
170
330
1F
100
AcDbEntity
  8
0
100
AcDbLine
 10
88.18352337035705
 20
0.1950662271109088
 30
0.0
 11
87.52744671737042
 21
-0.3601511648841011
 31
0.0
  0
LINE
  5
171
330
1F
100
AcDbEntity
  8
0
100
AcDbLine
 10
87.52744671737042
 20
-0.3601511648841011
 30
0.0
 11
86.91124276854667
 21
-0.9593135973028637
 31
0.0
  0
LINE
  5
172
330
1F
100
AcDbEntity
  8
0
100
AcDbLine
 10
86.91124276854667
 20
-0.9593135973028637
 30
0.0
 11
86.33784863632897
 21
-1.59956518543535
 31
0.0
  0
LINE
  5
173
330
1F
100
AcDbEntity
  8
0
100
AcDbLine
 10
86.33784863632897
 20
-1.59956518543535
 30
0.0
 11
85.80999738181461
 21
-2.277854194689882
 31
0.0
  0
LINE
  5
174
330
1F
100
AcDbEntity
  8
0
100
AcDbLine
 10
85.80999738181461
 20
-2.277854194689882
 30
0.0
 11
85.33020498772437
 21
-2.990947586568513
 31
0.0
  0
LINE
  5
175
330
1F
100
AcDbEntity
  8
0
100
AcDbLine
 10
85.33020498772437
 20
-2.990947586568513
 30
0.0
 11
84.90075836606762
 21
-3.735446428821191
 31
0.0
  0
LINE
  5
176
330
1F
100
AcDbEntity
  8
0
100
AcDbLine
 10
84.523704457664
 20
-4.507802096325011
 30
0.0
 11
84.20084047547881
 21
-5.304333185470584
 31
0.0
  0
LINE
  5
177
330
1F
100
AcDbEntity
  8
0
100
AcDbLine
 10
84.20084047547881
 20
-5.304333185470584
 30
0.0
 11
83.93370533827643
 21
-6.12124306142982
 31
0.0
  0
LINE
  5
178
330
1F
100
AcDbEntity
  8
0
100
AcDbLine
 10
83.93370533827643
 20
-6.12124306142982
 30
0.0
 11
83.72357233542306
 21
-6.954637954670532
 31
0.0
  0
LINE
  5
179
330
1F
100
AcDbEntity
  8
0
100
AcDbLine
 10
83.72357233542306
 20
-6.954637954670532
 30
0.0
 11
83.57144305780199
 21
-7.800545520459083
 31
0.0
  0
LINE
  5
17A
330
1F
100
AcDbEntity
  8
0
100
AcDbLine
 10
83.57144305780199
 20
-7.800545520459083
 30
0.0
 11
83.47804262376903
 21
-8.654933772889065
 31
0.0
  0
LINE
  5
17B
330
1F
100
AcDbEntity
  8
0
100
AcDbLine
 10
70.77804262376904
 20
-8.654933772889065
 30
0.0
 11
83.47804262376903
 21
-8.654933772889065
 31
0.0
  0
LINE
  5
17C
330
1F
100
AcDbEntity
  8
0
100
AcDbLine
 10
70.68138880034108
 20
-7.814631528284924
 30
0.0
 11
70.77804262376904
 21
-8.654933772889065
 31
0.0
  0
LINE
  5
17D
330
1F
100
AcDbEntity
  8
0
100
AcDbLine
 10
70.53130150223245
 20
-6.982211185659626
 30
0.0
 11
70.68138880034108
 21
-7.814631528284924
 31
0.0
  0
LINE
  5
17E
330
1F
100
AcDbEntity
  8
0
100
AcDbLine
 10
70.32839271332516
 20
-6.161066955177371
 30
0.0
 11
70.53130150223245
 21
-6.982211185659626
 31
0.0
  0
LINE
  5
17F
330
1F
100
AcDbEntity
  8
0
100
AcDbLine
 10
70.07348979815917
 20
-5.354547068435714
 30
0.0
 11
70.32839271332516
 21
-6.161066955177371
 31
0.0
  0
LINE
  5
180
330
1F
100
AcDbEntity
  8
0
100
AcDbLine
 10
69.76763212833701
 20
-4.565940125985328
 30
0.0
 11
70.07348979815917
 21
-5.354547068435714
 31
0.0
  0
LINE
  5
181
330
1F
100
AcDbEntity
  8
0
100
AcDbLine
 10
69.41206684446604
 20
-3.798461687997917
 30
0.0
 11
69.76763212833701
 21
-4.565940125985328
 31
0.0
  0
LINE
  5
182
330
1F
100
AcDbEntity
  8
0
100
AcDbLine
 10
67.52463657796106
 20
-1.000863776916243
 30
0.0
 11
68.06260069864095
 21
-1.653584566175405
 31
0.0
  0
LINE
  5
183
330
1F
100
AcDbEntity
  8
0
100
AcDbLine
 10
66.94611070128737
 20
-0.3838081603881462
 30
0.0
 11
67.52463657796106
 21
-1.000863776916243
 31
0.0
  0
LINE
  5
184
330
1F
100
AcDbEntity
  8
0
100
AcDbLine
 10
77.12804262376903
 20
6.897766227110874
 30
0.0
 11
77.78873000020225
 21
6.81078508387896
 31
0.0
  0
LINE
  5
185
330
1F
100
AcDbEntity
  8
0
100
AcDbLine
 10
76.46735524733582
 20
6.81078508387896
 30
0.0
 11
77.12804262376903
 21
6.897766227110874
 31
0.0
  0
LINE
  5
186
330
1F
100
AcDbEntity
  8
0
100
AcDbLine
 10
75.85169262376898
 20
6.555769275351344
 30
0.0
 11
76.46735524733582
 21
6.81078508387896
 31
0.0
  0
LINE
  5
187
330
1F
100
AcDbEntity
  8
0
100
AcDbLine
 10
75.32301114343416
 20
6.150097707445744
 30
0.0
 11
75.85169262376898
 21
6.555769275351344
 31
0.0
  0
LINE
  5
188
330
1F
100
AcDbEntity
  8
0
100
AcDbLine
 10
74.91733957552847
 20
5.621416227110825
 30
0.0
 11
75.32301114343416
 21
6.150097707445744
 31
0.0
  0
LINE
  5
189
330
1F
100
AcDbEntity
  8
0
100
AcDbLine
 10
74.66232376700094
 20
5.005753603544083
 30
0.0
 11
74.91733957552847
 21
5.621416227110825
 31
0.0
  0
LINE
  5
18A
330
1F
100
AcDbEntity
  8
0
100
AcDbLine
 10
74.57534262376903
 20
4.345066227110867
 30
0.0
 11
74.66232376700094
 21
5.005753603544083
 31
0.0
  0
LINE
  5
18B
330
1F
100
AcDbEntity
  8
0
100
AcDbLine
 10
74.66232376700094
 20
3.684378850677652
 30
0.0
 11
74.57534262376903
 21
4.345066227110867
 31
0.0
  0
LINE
  5
18C
330
1F
100
AcDbEntity
  8
0
100
AcDbLine
 10
74.91733957552847
 20
3.068716227110819
 30
0.0
 11
74.66232376700094
 21
3.684378850677652
 31
0.0
  0
LINE
  5
18D
330
1F
100
AcDbEntity
  8
0
100
AcDbLine
 10
75.32301114343416
 20
2.5400347467759
 30
0.0
 11
74.91733957552847
 21
3.068716227110819
 31
0.0
  0
LINE
  5
18E
330
1F
100
AcDbEntity
  8
0
100
AcDbLine
 10
75.85169262376898
 20
2.134363178870301
 30
0.0
 11
75.32301114343416
 21
2.5400347467759
 31
0.0
  0
LINE
  5
18F
330
1F
100
AcDbEntity
  8
0
100
AcDbLine
 10
76.46735524733582
 20
1.879347370342775
 30
0.0
 11
75.85169262376898
 21
2.134363178870301
 31
0.0
  0
LINE
  5
190
330
1F
100
AcDbEntity
  8
0
100
AcDbLine
 10
77.12804262376903
 20
1.792366227110861
 30
0.0
 11
76.46735524733582
 21
1.879347370342775
 31
0.0
  0
LINE
  5
191
330
1F
100
AcDbEntity
  8
0
100
AcDbLine
 10
77.78873000020225
 20
1.879347370342775
 30
0.0
 11
77.12804262376903
 21
1.792366227110861
 31
0.0
  0
LINE
  5
192
330
1F
100
AcDbEntity
  8
0
100
AcDbLine
 10
78.404392623769
 20
2.134363178870301
 30
0.0
 11
77.78873000020225
 21
1.879347370342775
 31
0.0
  0
LINE
  5
193
330
1F
100
AcDbEntity
  8
0
100
AcDbLine
 10
78.93307410410391
 20
2.5400347467759
 30
0.0
 11
78.404392623769
 21
2.134363178870301
 31
0.0
  0
LINE
  5
194
330
1F
100
AcDbEntity
  8
0
100
AcDbLine
 10
79.33874567200961
 20
3.068716227110819
 30
0.0
 11
78.93307410410391
 21
2.5400347467759
 31
0.0
  0
LINE
  5
195
330
1F
100
AcDbEntity
  8
0
100
AcDbLine
 10
79.59376148053713
 20
3.684378850677652
 30
0.0
 11
79.33874567200961
 21
3.068716227110819
 31
0.0
  0
LINE
  5
196
330
1F
100
AcDbEntity
  8
0
100
AcDbLine
 10
79.68074262376904
 20
4.345066227110867
 30
0.0
 11
79.59376148053713
 21
3.684378850677652
 31
0.0
  0
LINE
  5
197
330
1F
100
AcDbEntity
  8
0
100
AcDbLine
 10
79.59376148053713
 20
5.005753603544083
 30
0.0
 11
79.68074262376904
 21
4.345066227110867
 31
0.0
  0
LINE
  5
198
330
1F
100
AcDbEntity
  8
0
100
AcDbLine
 10
79.33874567200961
 20
5.621416227110825
 30
0.0
 11
79.59376148053713
 21
5.005753603544083
 31
0.0
  0
LINE
  5
199
330
1F
100
AcDbEntity
  8
0
100
AcDbLine
 10
78.93307410410391
 20
6.150097707445744
 30
0.0
 11
79.33874567200961
 21
5.621416227110825
 31
0.0
  0
LINE
  5
19A
330
1F
100
AcDbEntity
  8
0
100
AcDbLine
 10
78.404392623769
 20
6.555769275351344
 30
0.0
 11
78.93307410410391
 21
6.150097707445744
 31
0.0
  0
LINE
  5
19B
330
1F
100
AcDbEntity
  8
0
100
AcDbLine
 10
77.78873000020225
 20
6.81078508387896
 30
0.0
 11
78.404392623769
 21
6.555769275351344
 31
0.0
  0
LINE
  5
19C
330
1F
100
AcDbEntity
  8
0
100
AcDbLine
 10
76.96313250026857
 20
22.72703757117874
 30
0.0
 11
76.58607859186503
 21
21.95468190367483
 31
0.0
  0
LINE
  5
19D
330
1F
100
AcDbEntity
  8
0
100
AcDbLine
 10
77.39257912192541
 20
23.47153641343133
 30
0.0
 11
76.96313250026857
 21
22.72703757117874
 31
0.0
  0
LINE
  5
19E
330
1F
100
AcDbEntity
  8
0
100
AcDbLine
 10
77.87237151601565
 20
24.18462980531005
 30
0.0
 11
77.39257912192541
 21
23.47153641343133
 31
0.0
  0
LINE
  5
19F
330
1F
100
AcDbEntity
  8
0
100
AcDbLine
 10
78.40022277053001
 20
24.86291881456449
 30
0.0
 11
77.87237151601565
 21
24.18462980531005
 31
0.0
  0
LINE
  5
1A0
330
1F
100
AcDbEntity
  8
0
100
AcDbLine
 10
78.97361690274771
 20
25.50317040269707
 30
0.0
 11
78.40022277053001
 21
24.86291881456449
 31
0.0
  0
LINE
  5
1A1
330
1F
100
AcDbEntity
  8
0
100
AcDbLine
 10
79.58982085157146
 20
26.10233283511574
 30
0.0
 11
78.97361690274771
 21
25.50317040269707
 31
0.0
  0
LINE
  5
1A2
330
1F
100
AcDbEntity
  8
0
100
AcDbLine
 10
80.24589750455809
 20
26.65755022711075
 30
0.0
 11
79.58982085157146
 21
26.10233283511574
 31
0.0
  0
LINE
  5
1A3
330
1F
100
AcDbEntity
  8
0
100
AcDbLine
 10
60.12497483284199
 20
24.80889943382444
 30
0.0
 11
60.62018363834515
 21
24.12317495356862
 31
0.0
  0
LINE
  5
1A4
330
1F
100
AcDbEntity
  8
0
100
AcDbLine
 10
58.39175615335364
 20
26.65755022711075
 30
0.0
 11
59.00848483548831
 21
26.07867583961169
 31
0.0
  0
LINE
  5
1A5
330
1F
100
AcDbEntity
  8
0
100
AcDbLine
 10
59.00848483548831
 20
26.07867583961169
 30
0.0
 11
59.5870107121621
 21
25.46162022308369
 31
0.0
  0
LINE
  5
1A6
330
1F
100
AcDbEntity
  8
0
100
AcDbLine
 10
59.5870107121621
 20
25.46162022308369
 30
0.0
 11
60.12497483284199
 21
24.80889943382444
 31
0.0
  0
LINE
  5
1A7
330
1F
100
AcDbEntity
  8
0
100
AcDbLine
 10
80.24589750455809
 20
26.65755022711075
 30
0.0
 11
96.69444175796997
 21
26.65755022711075
 31
0.0
  0
LINE
  5
1A8
330
1F
100
AcDbEntity
  8
0
100
AcDbLine
 10
-64.43958324202998
 20
26.65755022711075
 30
0.0
 11
58.39175615335364
 21
26.65755022711075
 31
0.0
  0
LINE
  5
1A9
330
1F
100
AcDbEntity
  8
0
100
AcDbLine
 10
-64.43958324202998
 20
41.22264222711083
 30
0.0
 11
96.69444175796997
 21
41.22264222711083
 31
0.0
  0
LINE
  5
1AA
330
1F
100
AcDbEntity
  8
0
100
AcDbLine
 10
96.69444175796997
 20
26.65755022711075
 30
0.0
 11
96.69444175796997
 21
41.22264222711083
 31
0.0
  0
LINE
  5
1AB
330
1F
100
AcDbEntity
  8
0
100
AcDbLine
 10
-64.43958324202998
 20
26.65755022711075
 30
0.0
 11
-64.43958324202998
 21
41.22264222711083
 31
0.0
  0
LINE
  5
1AC
330
1F
100
AcDbEntity
  8
0
100
AcDbLine
 10
76.58607859186503
 20
21.95468190367483
 30
0.0
 11
76.26321460967985
 21
21.15815081452926
 31
0.0
  0
LINE
  5
1AD
330
1F
100
AcDbEntity
  8
0
100
AcDbLine
 10
76.26321460967985
 20
21.15815081452926
 30
0.0
 11
75.99607947247746
 21
20.34124093857002
 31
0.0
  0
LINE
  5
1AE
330
1F
100
AcDbEntity
  8
0
100
AcDbLine
 10
75.99607947247746
 20
20.34124093857002
 30
0.0
 11
75.7859464696241
 21
19.50784604532931
 31
0.0
  0
LINE
  5
1AF
330
1F
100
AcDbEntity
  8
0
100
AcDbLine
 10
-64.4395832420296
 20
14.11911510266516
 30
0.0
 11
-38.43958324202985
 21
14.11911471523488
 31
0.0
  0
LINE
  5
1B0
330
1F
100
AcDbEntity
  8
0
100
AcDbLine
 10
-48.9738651662958
 20
-38.29519775135898
 30
0.0
 11
-48.88688403290891
 21
-38.95588512908821
 31
0.0
  0
LINE
  5
1B1
330
1F
100
AcDbEntity
  8
0
100
AcDbLine
 10
-64.43958482378798
 20
-92.03088489733497
 30
0.0
 11
-64.4395832420296
 21
14.11911510266516
 31
0.0
  0
LINE
  5
1B2
330
1F
100
AcDbEntity
  8
0
100
AcDbLine
 10
-38.43958324202985
 20
14.11911471523488
 30
0.0
 11
-38.43958482378825
 21
-92.03088528476516
 31
0.0
  0
LINE
  5
1B3
330
1F
100
AcDbEntity
  8
0
100
AcDbLine
 10
-38.43958482378825
 20
-92.03088528476516
 30
0.0
 11
-64.43958482378798
 21
-92.03088489733497
 31
0.0
  0
LINE
  5
1B4
330
1F
100
AcDbEntity
  8
0
100
AcDbLine
 10
-48.88688403290891
 20
-38.95588512908821
 30
0.0
 11
-48.97386518598582
 21
-39.61657250422542
 31
0.0
  0
LINE
  5
1B5
330
1F
100
AcDbEntity
  8
0
100
AcDbLine
 10
-49.22888096564927
 20
-37.6795351239921
 30
0.0
 11
-48.9738651662958
 21
-38.29519775135898
 31
0.0
  0
LINE
  5
1B6
330
1F
100
AcDbEntity
  8
0
100
AcDbLine
 10
-49.63455252567694
 20
-37.15085363761217
 30
0.0
 11
-49.22888096564927
 21
-37.6795351239921
 31
0.0
  0
LINE
  5
1B7
330
1F
100
AcDbEntity
  8
0
100
AcDbLine
 10
-50.16323399996688
 20
-36.74518206182861
 30
0.0
 11
-49.63455252567694
 21
-37.15085363761217
 31
0.0
  0
LINE
  5
1B8
330
1F
100
AcDbEntity
  8
0
100
AcDbLine
 10
-50.77889661973363
 20
-36.49016624412695
 30
0.0
 11
-50.16323399996688
 21
-36.74518206182861
 31
0.0
  0
LINE
  5
1B9
330
1F
100
AcDbEntity
  8
0
100
AcDbLine
 10
-51.43958399487072
 20
-36.40318509105006
 30
0.0
 11
-50.77889661973363
 21
-36.49016624412695
 31
0.0
  0
LINE
  5
1BA
330
1F
100
AcDbEntity
  8
0
100
AcDbLine
 10
-52.10027137260004
 20
-36.4901662244369
 30
0.0
 11
-51.43958399487072
 21
-36.40318509105006
 31
0.0
  0
LINE
  5
1BB
330
1F
100
AcDbEntity
  8
0
100
AcDbLine
 10
-52.71593399996688
 20
-36.74518202379038
 30
0.0
 11
-52.10027137260004
 21
-36.4901662244369
 31
0.0
  0
LINE
  5
1BC
330
1F
100
AcDbEntity
  8
0
100
AcDbLine
 10
-53.24461548634677
 20
-37.15085358381803
 30
0.0
 11
-52.71593399996688
 21
-36.74518202379038
 31
0.0
  0
LINE
  5
1BD
330
1F
100
AcDbEntity
  8
0
100
AcDbLine
 10
-53.65028706213036
 20
-37.67953505810802
 30
0.0
 11
-53.24461548634677
 21
-37.15085358381803
 31
0.0
  0
LINE
  5
1BE
330
1F
100
AcDbEntity
  8
0
100
AcDbLine
 10
-53.90530287983203
 20
-38.29519767787472
 30
0.0
 11
-53.65028706213036
 21
-37.67953505810802
 31
0.0
  0
LINE
  5
1BF
330
1F
100
AcDbEntity
  8
0
100
AcDbLine
 10
-53.99228403290892
 20
-38.95588505301183
 30
0.0
 11
-53.90530287983203
 21
-38.29519767787472
 31
0.0
  0
LINE
  5
1C0
330
1F
100
AcDbEntity
  8
0
100
AcDbLine
 10
-53.90530289952205
 20
-39.61657243074115
 30
0.0
 11
-53.99228403290892
 21
-38.95588505301183
 31
0.0
  0
LINE
  5
1C1
330
1F
100
AcDbEntity
  8
0
100
AcDbLine
 10
-53.65028710016858
 20
-40.23223505810803
 30
0.0
 11
-53.90530289952205
 21
-39.61657243074115
 31
0.0
  0
LINE
  5
1C2
330
1F
100
AcDbEntity
  8
0
100
AcDbLine
 10
-53.2446155401409
 20
-40.76091654448788
 30
0.0
 11
-53.65028710016858
 21
-40.23223505810803
 31
0.0
  0
LINE
  5
1C3
330
1F
100
AcDbEntity
  8
0
100
AcDbLine
 10
-52.71593406585097
 20
-41.16658812027151
 30
0.0
 11
-53.2446155401409
 21
-40.76091654448788
 31
0.0
  0
LINE
  5
1C4
330
1F
100
AcDbEntity
  8
0
100
AcDbLine
 10
-52.10027144608421
 20
-41.42160393797318
 30
0.0
 11
-52.71593406585097
 21
-41.16658812027151
 31
0.0
  0
LINE
  5
1C5
330
1F
100
AcDbEntity
  8
0
100
AcDbLine
 10
-51.43958407094713
 20
-41.50858509105007
 30
0.0
 11
-52.10027144608421
 21
-41.42160393797318
 31
0.0
  0
LINE
  5
1C6
330
1F
100
AcDbEntity
  8
0
100
AcDbLine
 10
-50.77889669321779
 20
-41.42160395766322
 30
0.0
 11
-51.43958407094713
 21
-41.50858509105007
 31
0.0
  0
LINE
  5
1C7
330
1F
100
AcDbEntity
  8
0
100
AcDbLine
 10
-50.16323406585097
 20
-41.16658815830975
 30
0.0
 11
-50.77889669321779
 21
-41.42160395766322
 31
0.0
  0
LINE
  5
1C8
330
1F
100
AcDbEntity
  8
0
100
AcDbLine
 10
-49.63455257947108
 20
-40.76091659828201
 30
0.0
 11
-50.16323406585097
 21
-41.16658815830975
 31
0.0
  0
LINE
  5
1C9
330
1F
100
AcDbEntity
  8
0
100
AcDbLine
 10
-49.22888100368748
 20
-40.2322351239921
 30
0.0
 11
-49.63455257947108
 21
-40.76091659828201
 31
0.0
  0
LINE
  5
1CA
330
1F
100
AcDbEntity
  8
0
100
AcDbLine
 10
-48.97386518598582
 20
-39.61657250422542
 30
0.0
 11
-49.22888100368748
 21
-40.2322351239921
 31
0.0
  0
LINE
  5
1CB
330
1F
100
AcDbEntity
  8
0
100
AcDbLine
 10
-64.43958324202995
 20
100.1280472847695
 30
0.0
 11
103.7533304872615
 21
100.1280472847695
 31
0.0
  0
LINE
  5
1CC
330
1F
100
AcDbEntity
  8
0
100
AcDbLine
 10
103.7533304872615
 20
100.1280472847695
 30
0.0
 11
103.7533304872615
 21
74.12804728476972
 31
0.0
  0
LINE
  5
1CD
330
1F
100
AcDbEntity
  8
0
100
AcDbLine
 10
103.7533304872615
 20
74.12804728476972
 30
0.0
 11
-64.43958324202998
 21
74.12804728476972
 31
0.0
  0
LINE
  5
1CE
330
1F
100
AcDbEntity
  8
0
100
AcDbLine
 10
-64.43958324202998
 20
74.12804728476972
 30
0.0
 11
-64.43958324202995
 21
100.1280472847695
 31
0.0
  0
LINE
  5
1CF
330
1F
100
AcDbEntity
  8
0
100
AcDbLine
 10
95.9617497406734
 20
87.12804728476966
 30
0.0
 11
95.85053504509828
 21
86.28328780345954
 31
0.0
  0
LINE
  5
1D0
330
1F
100
AcDbEntity
  8
0
100
AcDbLine
 10
95.85053504509828
 20
87.97280676607977
 30
0.0
 11
95.9617497406734
 21
87.12804728476966
 31
0.0
  0
LINE
  5
1D1
330
1F
100
AcDbEntity
  8
0
100
AcDbLine
 10
95.52447005608542
 20
88.7599972847697
 30
0.0
 11
95.85053504509828
 21
87.97280676607977
 31
0.0
  0
LINE
  5
1D2
330
1F
100
AcDbEntity
  8
0
100
AcDbLine
 10
95.00577556378818
 20
89.43597310788441
 30
0.0
 11
95.52447005608542
 21
88.7599972847697
 31
0.0
  0
LINE
  5
1D3
330
1F
100
AcDbEntity
  8
0
100
AcDbLine
 10
94.32979974067337
 20
89.95466760018165
 30
0.0
 11
95.00577556378818
 21
89.43597310788441
 31
0.0
  0
LINE
  5
1D4
330
1F
100
AcDbEntity
  8
0
100
AcDbLine
 10
93.54260922198354
 20
90.28073258919451
 30
0.0
 11
94.32979974067337
 21
89.95466760018165
 31
0.0
  0
LINE
  5
1D5
330
1F
100
AcDbEntity
  8
0
100
AcDbLine
 10
92.69784974067343
 20
90.39194728476963
 30
0.0
 11
93.54260922198354
 21
90.28073258919451
 31
0.0
  0
LINE
  5
1D6
330
1F
100
AcDbEntity
  8
0
100
AcDbLine
 10
91.85309025936331
 20
90.28073258919451
 30
0.0
 11
92.69784974067343
 21
90.39194728476963
 31
0.0
  0
LINE
  5
1D7
330
1F
100
AcDbEntity
  8
0
100
AcDbLine
 10
91.0658997406734
 20
89.95466760018165
 30
0.0
 11
91.85309025936331
 21
90.28073258919451
 31
0.0
  0
LINE
  5
1D8
330
1F
100
AcDbEntity
  8
0
100
AcDbLine
 10
90.38992391755859
 20
89.43597310788441
 30
0.0
 11
91.0658997406734
 21
89.95466760018165
 31
0.0
  0
LINE
  5
1D9
330
1F
100
AcDbEntity
  8
0
100
AcDbLine
 10
89.87122942526135
 20
88.7599972847696
 30
0.0
 11
90.38992391755859
 21
89.43597310788441
 31
0.0
  0
LINE
  5
1DA
330
1F
100
AcDbEntity
  8
0
100
AcDbLine
 10
89.54516443624848
 20
87.97280676607977
 30
0.0
 11
89.87122942526135
 21
88.7599972847696
 31
0.0
  0
LINE
  5
1DB
330
1F
100
AcDbEntity
  8
0
100
AcDbLine
 10
89.43394974067337
 20
87.12804728476966
 30
0.0
 11
89.54516443624848
 21
87.97280676607977
 31
0.0
  0
LINE
  5
1DC
330
1F
100
AcDbEntity
  8
0
100
AcDbLine
 10
89.54516443624848
 20
86.28328780345954
 30
0.0
 11
89.43394974067337
 21
87.12804728476966
 31
0.0
  0
LINE
  5
1DD
330
1F
100
AcDbEntity
  8
0
100
AcDbLine
 10
89.87122942526135
 20
85.49609728476963
 30
0.0
 11
89.54516443624848
 21
86.28328780345954
 31
0.0
  0
LINE
  5
1DE
330
1F
100
AcDbEntity
  8
0
100
AcDbLine
 10
90.38992391755859
 20
84.82012146165482
 30
0.0
 11
89.87122942526135
 21
85.49609728476963
 31
0.0
  0
LINE
  5
1DF
330
1F
100
AcDbEntity
  8
0
100
AcDbLine
 10
91.0658997406734
 20
84.30142696935758
 30
0.0
 11
90.38992391755859
 21
84.82012146165482
 31
0.0
  0
LINE
  5
1E0
330
1F
100
AcDbEntity
  8
0
100
AcDbLine
 10
91.85309025936331
 20
83.97536198034472
 30
0.0
 11
91.0658997406734
 21
84.30142696935758
 31
0.0
  0
LINE
  5
1E1
330
1F
100
AcDbEntity
  8
0
100
AcDbLine
 10
92.69784974067343
 20
83.8641472847696
 30
0.0
 11
91.85309025936331
 21
83.97536198034472
 31
0.0
  0
LINE
  5
1E2
330
1F
100
AcDbEntity
  8
0
100
AcDbLine
 10
93.54260922198354
 20
83.97536198034472
 30
0.0
 11
92.69784974067343
 21
83.8641472847696
 31
0.0
  0
LINE
  5
1E3
330
1F
100
AcDbEntity
  8
0
100
AcDbLine
 10
94.32979974067337
 20
84.30142696935758
 30
0.0
 11
93.54260922198354
 21
83.97536198034472
 31
0.0
  0
LINE
  5
1E4
330
1F
100
AcDbEntity
  8
0
100
AcDbLine
 10
95.00577556378818
 20
84.82012146165482
 30
0.0
 11
94.32979974067337
 21
84.30142696935758
 31
0.0
  0
LINE
  5
1E5
330
1F
100
AcDbEntity
  8
0
100
AcDbLine
 10
95.52447005608542
 20
85.49609728476963
 30
0.0
 11
95.00577556378818
 21
84.82012146165482
 31
0.0
  0
LINE
  5
1E6
330
1F
100
AcDbEntity
  8
0
100
AcDbLine
 10
95.85053504509828
 20
86.28328780345954
 30
0.0
 11
95.52447005608542
 21
85.49609728476963
 31
0.0
  0
ENDSEC
  0
SECTION
  2
OBJECTS
  0
DICTIONARY
  5
C
330
0
100
AcDbDictionary
  3
ACAD_GROUP
350
D
  3
ACAD_LAYOUT
350
1A
  3
ACAD_MATERIAL
350
43
  3
ACAD_MLEADERSTYLE
350
6B
  3
ACAD_MLINESTYLE
350
17
  3
ACAD_PLOTSETTINGS
350
19
  3
ACAD_SCALELIST
350
47
  3
ACAD_VISUALSTYLE
350
2A
  3
ACDBHEADERROUNDTRIPXREC
350
1E7
  3
ACDBVARIABLEDICTIONARY
350
208
  0
DICTIONARY
  5
20F
330
8
100
AcDbDictionary
280
     1
  3
ACAD_XREC_ROUNDTRIP
360
210
  0
DICTIONARY
  5
D
102
{ACAD_REACTORS
330
C
102
}
330
C
100
AcDbDictionary
  0
DICTIONARY
  5
1A
102
{ACAD_REACTORS
330
C
102
}
330
C
100
AcDbDictionary
  0
DICTIONARY
  5
43
102
{ACAD_REACTORS
330
C
102
}
330
C
100
AcDbDictionary
  3
BYBLOCK
350
45
  3
BYLAYER
350
44
  3
GLOBAL
350
46
  0
DICTIONARY
  5
6B
102
{ACAD_REACTORS
330
C
102
}
330
C
100
AcDbDictionary
  3
STANDARD
350
6C
  0
DICTIONARY
  5
17
102
{ACAD_REACTORS
330
C
102
}
330
C
100
AcDbDictionary
  3
STANDARD
350
18
  0
DICTIONARY
  5
19
102
{ACAD_REACTORS
330
C
102
}
330
C
100
AcDbDictionary
  0
DICTIONARY
  5
47
102
{ACAD_REACTORS
330
C
102
}
330
C
100
AcDbDictionary
  3
A0
350
48
  3
A1
350
49
  3
A2
350
4A
  3
A3
350
4B
  3
A4
350
4C
  3
A5
350
4D
  3
A6
350
4E
  3
A7
350
4F
  3
A8
350
50
  3
A9
350
51
  3
B0
350
52
  3
B1
350
53
  3
B2
350
54
  3
B3
350
55
  3
B4
350
56
  3
B5
350
57
  3
B6
350
58
  3
B7
350
59
  3
B8
350
5A
  3
B9
350
5B
  3
C0
350
5C
  3
C1
350
5D
  3
C2
350
5E
  3
C3
350
5F
  3
C4
350
60
  3
C5
350
61
  3
C6
350
62
  3
C7
350
63
  3
C8
350
64
  3
C9
350
65
  3
D0
350
66
  3
D1
350
67
  3
D2
350
68
  0
DICTIONARY
  5
2A
102
{ACAD_REACTORS
330
C
102
}
330
C
100
AcDbDictionary
  3
2DWIREFRAME
350
2F
  3
BASIC
350
32
  3
BRIGHTEN
350
36
  3
COLORCHANGE
350
3A
  3
CONCEPTUAL
350
34
  3
DIM
350
35
  3
EDGECOLOROFF
350
3D
  3
FACEPATTERN
350
39
  3
FLAT
350
2B
  3
FLATWITHEDGES
350
2C
  3
GOURAUD
350
2D
  3
GOURAUDWITHEDGES
350
2E
  3
HIDDEN
350
31
  3
JITTEROFF
350
3B
  3
LINEPATTERN
350
38
  3
OVERHANGOFF
350
3C
  3
REALISTIC
350
33
  3
SHADED
350
42
  3
SHADED_WITH_EDGES
350
41
  3
SHADES_OF_GRAY
350
3E
  3
SKETCHY
350
3F
  3
THICKEN
350
37
  3
WIREFRAME
350
30
  3
X-RAY
350
40
  0
DICTIONARY
  5
1E7
102
{ACAD_REACTORS
330
C
102
}
330
C
100
AcDbDictionary
  3
CEPSNID
350
1F1
  3
CEPSNTYPE
350
1F0
  3
DIMSTYLEDATA
350
207
  3
FINGERPRINTGUID
350
1F2
  3
HYPERLINKBASE
350
1EA
  3
INSUNITS
350
1EF
  3
LAYOUTDICT
350
1EC
  3
LWETCUNION
350
1EE
  3
PLOTSETDICT
350
1ED
  3
PSVPSCALE
350
1F4
  3
PUCSBASE
350
1F7
  3
PUCSORGBACK
350
1FD
  3
PUCSORGBOTTOM
350
1F9
  3
PUCSORGFRONT
350
1FC
  3
PUCSORGLEFT
350
1FA
  3
PUCSORGRIGHT
350
1FB
  3
PUCSORGTOP
350
1F8
  3
PUCSORTHOREF
350
1F5
  3
PUCSORTHOVIEW
350
1F6
  3
STYLESHEET
350
1EB
  3
TSTACKALIGN
350
1E8
  3
TSTACKSIZE
350
1E9
  3
UCSBASE
350
200
  3
UCSORGBACK
350
206
  3
UCSORGBOTTOM
350
202
  3
UCSORGFRONT
350
205
  3
UCSORGLEFT
350
203
  3
UCSORGRIGHT
350
204
  3
UCSORGTOP
350
201
  3
UCSORTHOREF
350
1FE
  3
UCSORTHOVIEW
350
1FF
  3
VERSIONGUID
350
1F3
  0
DICTIONARY
  5
208
102
{ACAD_REACTORS
330
C
102
}
330
C
100
AcDbDictionary
  3
CANNOSCALE
350
211
  3
CMLEADERSTYLE
350
20A
  3
CTABLESTYLE
350
209
  3
DIMASSOC
350
20D
  3
HIDETEXT
350
20E
  3
MSLTSCALE
350
212
  0
XRECORD
  5
210
102
{ACAD_REACTORS
330
20F
102
}
330
20F
100
AcDbXrecord
102
VTR_0.000_0.000_1.000_1.000_VISUALSTYLE
340
2F
102
VTR_0.000_0.000_1.000_1.000_GRIDDISPLAY
 70
     3
102
VTR_0.000_0.000_1.000_1.000_GRIDMAJOR
 70
     5
102
VTR_0.000_0.000_1.000_1.000_DEFAULTLIGHTING
280
     1
102
VTR_0.000_0.000_1.000_1.000_DEFAULTLIGHTINGTYPE
 70
     1
102
VTR_0.000_0.000_1.000_1.000_BRIGHTNESS
141
0.0
102
VTR_0.000_0.000_1.000_1.000_CONTRAST
142
0.0
  0
MATERIAL
  5
45
102
{ACAD_REACTORS
330
43
102
}
102
{ACAD_XDICTIONARY
360
215
102
}
330
43
100
AcDbMaterial
  1
BYBLOCK
  0
MATERIAL
  5
44
102
{ACAD_REACTORS
330
43
102
}
102
{ACAD_XDICTIONARY
360
213
102
}
330
43
100
AcDbMaterial
  1
BYLAYER
  0
MATERIAL
  5
46
102
{ACAD_REACTORS
330
43
102
}
102
{ACAD_XDICTIONARY
360
217
102
}
330
43
100
AcDbMaterial
  1
GLOBAL
  0
ACAD_PROXY_OBJECT
  5
6C
102
{ACAD_REACTORS
330
6B
102
}
330
6B
100
AcDbProxyObject
 90
      499
 91
      505
 93
      610
310
40901902A4063FBFFFFFE056BD1B81E855B9FC0AD7A3703D0AD73F4214DD185B99185C9900AD7A3703D0AC73F90141901A02B5E8DC0F42B1CFC02B5E8DC0F42B1CFE5764000000000000300FC0
340
14
340
0
340
11
340
0
 94
        0
1001
ACAD_MLEADERVER
1070
     2
  0
MLINESTYLE
  5
18
102
{ACAD_REACTORS
330
17
102
}
330
17
100
AcDbMlineStyle
  2
Standard
 70
     0
  3

 62
   256
 51
90.0
 52
90.0
 71
     2
 49
0.5
 62
   256
  6
BYLAYER
 49
-0.5
 62
   256
  6
BYLAYER
  0
ACAD_PROXY_OBJECT
  5
48
102
{ACAD_REACTORS
330
47
102
}
330
47
100
AcDbProxyObject
 90
      499
 91
      503
 93
       41
310
903313A31580
  0
ACAD_PROXY_OBJECT
  5
49
102
{ACAD_REACTORS
330
47
102
}
330
47
100
AcDbProxyObject
 90
      499
 91
      503
 93
      105
310
903313A324000000000000004000
  0
ACAD_PROXY_OBJECT
  5
4A
102
{ACAD_REACTORS
330
47
102
}
330
47
100
AcDbProxyObject
 90
      499
 91
      503
 93
      105
310
903313A344000000000000104000
  0
ACAD_PROXY_OBJECT
  5
4B
102
{ACAD_REACTORS
330
47
102
}
330
47
100
AcDbProxyObject
 90
      499
 91
      503
 93
      105
310
903313A354000000000000144000
  0
ACAD_PROXY_OBJECT
  5
4C
102
{ACAD_REACTORS
330
47
102
}
330
47
100
AcDbProxyObject
 90
      499
 91
      503
 93
      105
310
903313A384000000000000204000
  0
ACAD_PROXY_OBJECT
  5
4D
102
{ACAD_REACTORS
330
47
102
}
330
47
100
AcDbProxyObject
 90
      499
 91
      503
 93
      113
310
904313A31304000000000000244000
  0
ACAD_PROXY_OBJECT
  5
4E
102
{ACAD_REACTORS
330
47
102
}
330
47
100
AcDbProxyObject
 90
      499
 91
      503
 93
      113
310
904313A31364000000000000304000
  0
ACAD_PROXY_OBJECT
  5
4F
102
{ACAD_REACTORS
330
47
102
}
330
47
100
AcDbProxyObject
 90
      499
 91
      503
 93
      113
310
904313A32304000000000000344000
  0
ACAD_PROXY_OBJECT
  5
50
102
{ACAD_REACTORS
330
47
102
}
330
47
100
AcDbProxyObject
 90
      499
 91
      503
 93
      113
310
904313A333040000000000003E4000
  0
ACAD_PROXY_OBJECT
  5
51
102
{ACAD_REACTORS
330
47
102
}
330
47
100
AcDbProxyObject
 90
      499
 91
      503
 93
      113
310
904313A34304000000000000444000
  0
ACAD_PROXY_OBJECT
  5
52
102
{ACAD_REACTORS
330
47
102
}
330
47
100
AcDbProxyObject
 90
      499
 91
      503
 93
      113
310
904313A35304000000000000494000
  0
ACAD_PROXY_OBJECT
  5
53
102
{ACAD_REACTORS
330
47
102
}
330
47
100
AcDbProxyObject
 90
      499
 91
      503
 93
      121
310
905313A3130304000000000000594000
  0
ACAD_PROXY_OBJECT
  5
54
102
{ACAD_REACTORS
330
47
102
}
330
47
100
AcDbProxyObject
 90
      499
 91
      503
 93
      105
310
903323A310000000000000010100
  0
ACAD_PROXY_OBJECT
  5
55
102
{ACAD_REACTORS
330
47
102
}
330
47
100
AcDbProxyObject
 90
      499
 91
      503
 93
      105
310
903343A310000000000000410100
  0
ACAD_PROXY_OBJECT
  5
56
102
{ACAD_REACTORS
330
47
102
}
330
47
100
AcDbProxyObject
 90
      499
 91
      503
 93
      105
310
903383A310000000000000810100
  0
ACAD_PROXY_OBJECT
  5
57
102
{ACAD_REACTORS
330
47
102
}
330
47
100
AcDbProxyObject
 90
      499
 91
      503
 93
      113
310
90431303A310000000000000910100
  0
ACAD_PROXY_OBJECT
  5
58
102
{ACAD_REACTORS
330
47
102
}
330
47
100
AcDbProxyObject
 90
      499
 91
      503
 93
      121
310
9053130303A310000000000001650100
  0
ACAD_PROXY_OBJECT
  5
59
102
{ACAD_REACTORS
330
47
102
}
330
47
100
AcDbProxyObject
 90
      499
 91
      503
 93
      257
310
90E312F31323822203D2031272D3022000000000000200FC000000000000284000
  0
ACAD_PROXY_OBJECT
  5
5A
102
{ACAD_REACTORS
330
47
102
}
330
47
100
AcDbProxyObject
 90
      499
 91
      503
 93
      249
310
90D312F363422203D2031272D3022000000000000240FC000000000000284000
  0
ACAD_PROXY_OBJECT
  5
5B
102
{ACAD_REACTORS
330
47
102
}
330
47
100
AcDbProxyObject
 90
      499
 91
      503
 93
      249
310
90D312F333222203D2031272D3022000000000000280FC000000000000284000
  0
ACAD_PROXY_OBJECT
  5
5C
102
{ACAD_REACTORS
330
47
102
}
330
47
100
AcDbProxyObject
 90
      499
 91
      503
 93
      249
310
90D312F313622203D2031272D30220000000000002C0FC000000000000284000
  0
ACAD_PROXY_OBJECT
  5
5D
102
{ACAD_REACTORS
330
47
102
}
330
47
100
AcDbProxyObject
 90
      499
 91
      503
 93
      249
310
90D332F333222203D2031272D30220000000000002E0FC000000000000284000
  0
ACAD_PROXY_OBJECT
  5
5E
102
{ACAD_REACTORS
330
47
102
}
330
47
100
AcDbProxyObject
 90
      499
 91
      503
 93
      241
310
90C312F3822203D2031272D3022000000000000300FC000000000000284000
  0
ACAD_PROXY_OBJECT
  5
5F
102
{ACAD_REACTORS
330
47
102
}
330
47
100
AcDbProxyObject
 90
      499
 91
      503
 93
      249
310
90D332F313622203D2031272D3022000000000000320FC000000000000284000
  0
ACAD_PROXY_OBJECT
  5
60
102
{ACAD_REACTORS
330
47
102
}
330
47
100
AcDbProxyObject
 90
      499
 91
      503
 93
      241
310
90C312F3422203D2031272D3022000000000000340FC000000000000284000
  0
ACAD_PROXY_OBJECT
  5
61
102
{ACAD_REACTORS
330
47
102
}
330
47
100
AcDbProxyObject
 90
      499
 91
      503
 93
      241
310
90C332F3822203D2031272D3022000000000000360FC000000000000284000
  0
ACAD_PROXY_OBJECT
  5
62
102
{ACAD_REACTORS
330
47
102
}
330
47
100
AcDbProxyObject
 90
      499
 91
      503
 93
      241
310
90C312F3222203D2031272D3022000000000000380FC000000000000284000
  0
ACAD_PROXY_OBJECT
  5
63
102
{ACAD_REACTORS
330
47
102
}
330
47
100
AcDbProxyObject
 90
      499
 91
      503
 93
      241
310
90C332F3422203D2031272D30220000000000003A0FC000000000000284000
  0
ACAD_PROXY_OBJECT
  5
64
102
{ACAD_REACTORS
330
47
102
}
330
47
100
AcDbProxyObject
 90
      499
 91
      503
 93
      161
310
90A3122203D2031272D30224000000000000284000
  0
ACAD_PROXY_OBJECT
  5
65
102
{ACAD_REACTORS
330
47
102
}
330
47
100
AcDbProxyObject
 90
      499
 91
      503
 93
      257
310
90E312D312F3222203D2031272D30220000000000003E0FC000000000000284000
  0
ACAD_PROXY_OBJECT
  5
66
102
{ACAD_REACTORS
330
47
102
}
330
47
100
AcDbProxyObject
 90
      499
 91
      503
 93
      225
310
90A3322203D2031272D302200000000000002100000000000000284000
  0
ACAD_PROXY_OBJECT
  5
67
102
{ACAD_REACTORS
330
47
102
}
330
47
100
AcDbProxyObject
 90
      499
 91
      503
 93
      225
310
90A3622203D2031272D302200000000000006100000000000000284000
  0
ACAD_PROXY_OBJECT
  5
68
102
{ACAD_REACTORS
330
47
102
}
330
47
100
AcDbProxyObject
 90
      499
 91
      503
 93
      249
310
90D31272D3022203D2031272D30220000000000000A100000000000000284000
  0
ACAD_PROXY_OBJECT
  5
2F
102
{ACAD_REACTORS
330
2A
102
}
330
2A
100
AcDbProxyObject
 90
      499
 91
      501
 93
      436
310
42CC9915DA5C99599C985B595049028333333333333E33F0000000000000F90107901411070040501600405405064090741402480A0340
1001
ACAD
1000
AcDbSavedByObjectVersion
1070
     0
  0
ACAD_PROXY_OBJECT
  5
32
102
{ACAD_REACTORS
330
2A
102
}
330
2A
100
AcDbProxyObject
 90
      499
 91
      501
 93
      388
310
4150985CDA58D07406404333333333333E33F0000000000000F90107A41107004050150841D405064090741402480A0350
1001
ACAD
1000
AcDbSavedByObjectVersion
1070
     0
  0
ACAD_PROXY_OBJECT
  5
36
102
{ACAD_REACTORS
330
2A
102
}
330
2A
100
AcDbProxyObject
 90
      499
 91
      501
 93
      428
310
42109C9A59DA1D195B90C409028333333333333E33F0000000000000F9010790141107004050150841D405064090741402480A029950
1001
ACAD
1000
AcDbSavedByObjectVersion
1070
     0
  0
ACAD_PROXY_OBJECT
  5
3A
102
{ACAD_REACTORS
330
2A
102
}
330
2A
100
AcDbProxyObject
 90
      499
 91
      501
 93
      452
310
42D0DBDB1BDC90DA185B99D95104090240C333333333333E33F0000000000000F90108901411070040501508421405064090741402480A0350
1001
ACAD
1000
AcDbSavedByObjectVersion
1070
     0
  0
ACAD_PROXY_OBJECT
  5
34
102
{ACAD_REACTORS
330
2A
102
}
330
2A
100
AcDbProxyObject
 90
      499
 91
      501
 93
      500
310
4290DBDB98D95C1D1D585B10940D028333333333333E33F0000000000000F90107902409070040501000000000018199010841D405064090740C02480A0340
1001
ACAD
1000
AcDbSavedByObjectVersion
1070
     0
  0
ACAD_PROXY_OBJECT
  5
35
102
{ACAD_REACTORS
330
2A
102
}
330
2A
100
AcDbProxyObject
 90
      499
 91
      501
 93
      412
310
40D11A5B50B409028333333333333E33F0000000000000F9010790141107004050150841D405064090741402480A02677FFFFFD0
1001
ACAD
1000
AcDbSavedByObjectVersion
1070
     0
  0
ACAD_PROXY_OBJECT
  5
3D
102
{ACAD_REACTORS
330
2A
102
}
330
2A
100
AcDbProxyObject
 90
      499
 91
      501
 93
      452
310
43115919D950DBDB1BDC93D999916409028333333333333E33F0000000000000F9010790141107004050150841D405064090741402480A0350
1001
ACAD
1000
AcDbSavedByObjectVersion
1070
     0
  0
ACAD_PROXY_OBJECT
  5
39
102
{ACAD_REACTORS
330
2A
102
}
330
2A
100
AcDbProxyObject
 90
      499
 91
      501
 93
      444
310
42D19858D95C185D1D195C9B90F409028333333333333E33F0000000000000F9010790141107004050150841D405064090741402480A0350
1001
ACAD
1000
AcDbSavedByObjectVersion
1070
     0
  0
ACAD_PROXY_OBJECT
  5
2B
102
{ACAD_REACTORS
330
2A
102
}
330
2A
100
AcDbProxyObject
 90
      499
 91
      501
 93
      380
310
41119B185D240901404333333333333E33F0000000000000F9010740A907004050150841D405064090741402480A1B50
1001
ACAD
1000
AcDbSavedByObjectVersion
1070
     0
  0
ACAD_PROXY_OBJECT
  5
2C
102
{ACAD_REACTORS
330
2A
102
}
330
2A
100
AcDbProxyObject
 90
      499
 91
      501
 93
      468
310
43519B185D15DA5D1A115919D95CD0140901404333333333333E33F0000000000000F90107409019070040501600405405064090741402480A1B50
1001
ACAD
1000
AcDbSavedByObjectVersion
1070
     0
  0
ACAD_PROXY_OBJECT
  5
2D
102
{ACAD_REACTORS
330
2A
102
}
330
2A
100
AcDbProxyObject
 90
      499
 91
      501
 93
      404
310
41D1DBDD5C985D5910240902404333333333333E33F0000000000000F9010740A9070040501641D405064090741402480A1B50
1001
ACAD
1000
AcDbSavedByObjectVersion
1070
     0
  0
ACAD_PROXY_OBJECT
  5
2E
102
{ACAD_REACTORS
330
2A
102
}
330
2A
100
AcDbProxyObject
 90
      499
 91
      501
 93
      492
310
4411DBDD5C985D5915DA5D1A115919D95CD0340902404333333333333E33F0000000000000F90107409019070040501600405405064090741402480A1B50
1001
ACAD
1000
AcDbSavedByObjectVersion
1070
     0
  0
ACAD_PROXY_OBJECT
  5
31
102
{ACAD_REACTORS
330
2A
102
}
330
2A
100
AcDbProxyObject
 90
      499
 91
      501
 93
      476
310
41921A5919195B90640502408333333333333E33F0000000000000F901079024090700405020000000000001110200405405064090740C02480A0340
1001
ACAD
1000
AcDbSavedByObjectVersion
1070
     0
  0
ACAD_PROXY_OBJECT
  5
3B
102
{ACAD_REACTORS
330
2A
102
}
330
2A
100
AcDbProxyObject
 90
      499
 91
      501
 93
      428
310
42529A5D1D195C93D999914409028333333333333E33F0000000000000F9010790141107004050150A41D405064090741402480A0350
1001
ACAD
1000
AcDbSavedByObjectVersion
1070
     0
  0
ACAD_PROXY_OBJECT
  5
38
102
{ACAD_REACTORS
330
2A
102
}
330
2A
100
AcDbProxyObject
 90
      499
 91
      501
 93
      444
310
42D31A5B995C185D1D195C9B90E409028333333333333E33F0000000000000F9010790141107004050750841D405064090741402483A0350
1001
ACAD
1000
AcDbSavedByObjectVersion
1070
     0
  0
ACAD_PROXY_OBJECT
  5
3C
102
{ACAD_REACTORS
330
2A
102
}
330
2A
100
AcDbProxyObject
 90
      499
 91
      501
 93
      444
310
42D3DD995C9A185B99D3D999915409028333333333333E33F0000000000000F9010790141107004050150941D405064090741402480A0350
1001
ACAD
1000
AcDbSavedByObjectVersion
1070
     0
  0
ACAD_PROXY_OBJECT
  5
33
102
{ACAD_REACTORS
330
2A
102
}
330
2A
100
AcDbProxyObject
 90
      499
 91
      501
 93
      428
310
425499585B1A5CDD1A58D08409038333333333333E33F0000000000000F9010740A907004050150800405405064090740C02480A1B40
1001
ACAD
1000
AcDbSavedByObjectVersion
1070
     0
  0
ACAD_PROXY_OBJECT
  5
42
102
{ACAD_REACTORS
330
2A
102
}
330
2A
100
AcDbProxyObject
 90
      499
 91
      501
 93
      420
310
4194DA1859195911B40902404333333333333E33F0000000000000F9010740A41107004050150800405405064090840C02480A0B40
1001
ACAD
1000
AcDbSavedByObjectVersion
1070
     0
  0
ACAD_PROXY_OBJECT
  5
41
102
{ACAD_REACTORS
330
2A
102
}
330
2A
100
AcDbProxyObject
 90
      499
 91
      501
 93
      516
310
4454DA18591959081DDA5D1A08195919D95CD1A40902404333333333333E33F0000000000000F901074090142907004050250800405405064090740C02480A0B40
1001
ACAD
1000
AcDbSavedByObjectVersion
1070
     0
  0
ACAD_PROXY_OBJECT
  5
3E
102
{ACAD_REACTORS
330
2A
102
}
330
2A
100
AcDbProxyObject
 90
      499
 91
      501
 93
      532
310
4394DA1859195CC81BD98811DC985E5174090240C333333333333E33F0000000000000F901079024090741D01000000000000111010841D405064090740C02480A0340
1001
ACAD
1000
AcDbSavedByObjectVersion
1070
     0
  0
ACAD_PROXY_OBJECT
  5
3F
102
{ACAD_REACTORS
330
2A
102
}
330
2A
100
AcDbProxyObject
 90
      499
 91
      501
 93
      476
310
41D4DAD95D18DA1E51840502408333333333333E33F0000000000000F901079024090741D01000000000000111010B41D405064090741802480A0340
1001
ACAD
1000
AcDbSavedByObjectVersion
1070
     0
  0
ACAD_PROXY_OBJECT
  5
37
102
{ACAD_REACTORS
330
2A
102
}
330
2A
100
AcDbProxyObject
 90
      499
 91
      501
 93
      412
310
41D51A1A58DAD95B90D409028333333333333E33F0000000000000F9010790141107004050150C41D405064090741402480A0350
1001
ACAD
1000
AcDbSavedByObjectVersion
1070
     0
  0
ACAD_PROXY_OBJECT
  5
30
102
{ACAD_REACTORS
330
2A
102
}
330
2A
100
AcDbProxyObject
 90
      499
 91
      501
 93
      420
310
4255DA5C99599C985B595059028333333333333E33F0000000000000F90107901411070040501600405405064090740C02480A0340
1001
ACAD
1000
AcDbSavedByObjectVersion
1070
     0
  0
ACAD_PROXY_OBJECT
  5
40
102
{ACAD_REACTORS
330
2A
102
}
330
2A
100
AcDbProxyObject
 90
      499
 91
      501
 93
      404
310
41560B54985E51940902404000000000000E03F0000000000000F9010740501907004050150841D405064090740C02480A1B40
1001
ACAD
1000
AcDbSavedByObjectVersion
1070
     0
  0
XRECORD
  5
1F1
102
{ACAD_REACTORS
330
1E7
102
}
330
1E7
100
AcDbXrecord
340
0
  0
XRECORD
  5
1F0
102
{ACAD_REACTORS
330
1E7
102
}
330
1E7
100
AcDbXrecord
 90
        0
  0
XRECORD
  5
207
102
{ACAD_REACTORS
330
1E7
102
}
330
1E7
100
AcDbXrecord
1000
DSTYLE
1002
{
1070
   171
 70
     2
1070
   143
 40
25.4
1070
   274
 70
     2
1070
    41
 40
0.18
1070
   141
 40
0.09
1070
   271
 70
     4
1070
    43
 40
0.38
1070
   278
 70
    46
1070
    44
 40
0.18
1070
    42
 40
0.0625
1070
   147
 40
0.09
1070
    77
 70
     0
1070
   272
 70
     4
1070
    73
 70
     1
1070
   172
 70
     0
1070
    74
 70
     1
1070
   283
 70
     1
1070
   340
340
11
1070
   140
 40
0.18
1070
   284
 70
     0
1070
    78
 70
     0
1002
}
  0
XRECORD
  5
1F2
102
{ACAD_REACTORS
330
1E7
102
}
330
1E7
100
AcDbXrecord
  1
{C13FA494-5465-4A18-9044-6D788DABA6A7}
  0
XRECORD
  5
1EA
102
{ACAD_REACTORS
330
1E7
102
}
330
1E7
100
AcDbXrecord
  1

  0
XRECORD
  5
1EF
102
{ACAD_REACTORS
330
1E7
102
}
330
1E7
100
AcDbXrecord
 90
        4
  0
XRECORD
  5
1EC
102
{ACAD_REACTORS
330
1E7
102
}
330
1E7
100
AcDbXrecord
340
1A
  0
XRECORD
  5
1EE
102
{ACAD_REACTORS
330
1E7
102
}
330
1E7
100
AcDbXrecord
 90
    10781
  0
XRECORD
  5
1ED
102
{ACAD_REACTORS
330
1E7
102
}
330
1E7
100
AcDbXrecord
340
19
  0
XRECORD
  5
1F4
102
{ACAD_REACTORS
330
1E7
102
}
330
1E7
100
AcDbXrecord
 40
0.0
  0
XRECORD
  5
1F7
102
{ACAD_REACTORS
330
1E7
102
}
330
1E7
100
AcDbXrecord
340
0
  0
XRECORD
  5
1FD
102
{ACAD_REACTORS
330
1E7
102
}
330
1E7
100
AcDbXrecord
 10
0.0
 20
0.0
 30
0.0
  0
XRECORD
  5
1F9
102
{ACAD_REACTORS
330
1E7
102
}
330
1E7
100
AcDbXrecord
 10
0.0
 20
0.0
 30
0.0
  0
XRECORD
  5
1FC
102
{ACAD_REACTORS
330
1E7
102
}
330
1E7
100
AcDbXrecord
 10
0.0
 20
0.0
 30
0.0
  0
XRECORD
  5
1FA
102
{ACAD_REACTORS
330
1E7
102
}
330
1E7
100
AcDbXrecord
 10
0.0
 20
0.0
 30
0.0
  0
XRECORD
  5
1FB
102
{ACAD_REACTORS
330
1E7
102
}
330
1E7
100
AcDbXrecord
 10
0.0
 20
0.0
 30
0.0
  0
XRECORD
  5
1F8
102
{ACAD_REACTORS
330
1E7
102
}
330
1E7
100
AcDbXrecord
 10
0.0
 20
0.0
 30
0.0
  0
XRECORD
  5
1F5
102
{ACAD_REACTORS
330
1E7
102
}
330
1E7
100
AcDbXrecord
340
0
  0
XRECORD
  5
1F6
102
{ACAD_REACTORS
330
1E7
102
}
330
1E7
100
AcDbXrecord
 70
     0
  0
XRECORD
  5
1EB
102
{ACAD_REACTORS
330
1E7
102
}
330
1E7
100
AcDbXrecord
  1

  0
XRECORD
  5
1E8
102
{ACAD_REACTORS
330
1E7
102
}
330
1E7
100
AcDbXrecord
 90
        1
  0
XRECORD
  5
1E9
102
{ACAD_REACTORS
330
1E7
102
}
330
1E7
100
AcDbXrecord
 90
       70
  0
XRECORD
  5
200
102
{ACAD_REACTORS
330
1E7
102
}
330
1E7
100
AcDbXrecord
340
0
  0
XRECORD
  5
206
102
{ACAD_REACTORS
330
1E7
102
}
330
1E7
100
AcDbXrecord
 10
0.0
 20
0.0
 30
0.0
  0
XRECORD
  5
202
102
{ACAD_REACTORS
330
1E7
102
}
330
1E7
100
AcDbXrecord
 10
0.0
 20
0.0
 30
0.0
  0
XRECORD
  5
205
102
{ACAD_REACTORS
330
1E7
102
}
330
1E7
100
AcDbXrecord
 10
0.0
 20
0.0
 30
0.0
  0
XRECORD
  5
203
102
{ACAD_REACTORS
330
1E7
102
}
330
1E7
100
AcDbXrecord
 10
0.0
 20
0.0
 30
0.0
  0
XRECORD
  5
204
102
{ACAD_REACTORS
330
1E7
102
}
330
1E7
100
AcDbXrecord
 10
0.0
 20
0.0
 30
0.0
  0
XRECORD
  5
201
102
{ACAD_REACTORS
330
1E7
102
}
330
1E7
100
AcDbXrecord
 10
0.0
 20
0.0
 30
0.0
  0
XRECORD
  5
1FE
102
{ACAD_REACTORS
330
1E7
102
}
330
1E7
100
AcDbXrecord
340
0
  0
XRECORD
  5
1FF
102
{ACAD_REACTORS
330
1E7
102
}
330
1E7
100
AcDbXrecord
 70
     0
  0
XRECORD
  5
1F3
102
{ACAD_REACTORS
330
1E7
102
}
330
1E7
100
AcDbXrecord
  1
{FAEB1C32-E019-11D5-929B-00C0DF256EC4}
  0
DICTIONARYVAR
  5
211
102
{ACAD_REACTORS
330
208
102
}
330
208
100
DictionaryVariables
280
     0
  1
1:1
  0
DICTIONARYVAR
  5
20A
102
{ACAD_REACTORS
330
208
102
}
330
208
100
DictionaryVariables
280
     0
  1
Standard
  0
DICTIONARYVAR
  5
209
102
{ACAD_REACTORS
330
208
102
}
330
208
100
DictionaryVariables
280
     0
  1
Standard
  0
DICTIONARYVAR
  5
20D
102
{ACAD_REACTORS
330
208
102
}
330
208
100
DictionaryVariables
280
     0
  1
2
  0
DICTIONARYVAR
  5
20E
102
{ACAD_REACTORS
330
208
102
}
330
208
100
DictionaryVariables
280
     0
  1
1
  0
DICTIONARYVAR
  5
212
102
{ACAD_REACTORS
330
208
102
}
330
208
100
DictionaryVariables
280
     0
  1
1
  0
DICTIONARY
  5
215
330
45
100
AcDbDictionary
280
     1
  3
ACAD_XREC_ROUNDTRIP
360
216
  0
DICTIONARY
  5
213
330
44
100
AcDbDictionary
280
     1
  3
ACAD_XREC_ROUNDTRIP
360
214
  0
DICTIONARY
  5
217
330
46
100
AcDbDictionary
280
     1
  3
ACAD_XREC_ROUNDTRIP
360
218
  0
XRECORD
  5
216
102
{ACAD_REACTORS
330
215
102
}
330
215
100
AcDbXrecord
102
MATERIAL
148
0.0
149
0.0
149
0.0
 93
        0
 94
      127
282
     0
 72
     1
 77
     1
171
     1
175
     1
179
     1
273
     0
  0
XRECORD
  5
214
102
{ACAD_REACTORS
330
213
102
}
330
213
100
AcDbXrecord
102
MATERIAL
148
0.0
149
0.0
149
0.0
 93
        0
 94
      127
282
     0
 72
     1
 77
     1
171
     1
175
     1
179
     1
273
     0
  0
XRECORD
  5
218
102
{ACAD_REACTORS
330
217
102
}
330
217
100
AcDbXrecord
102
MATERIAL
148
0.0
149
0.0
149
0.0
 93
        0
 94
      127
282
     0
 72
     1
 77
     1
171
     1
175
     1
179
     1
273
     0
  0
ENDSEC
  0
EOF
